<svg xmlns="http://www.w3.org/2000/svg" xmlns:xlink="http://www.w3.org/1999/xlink" version="1.1" style="enable-background:new 0 0 379 243;" xml:space="preserve" width="348.2753627434971" height="15.173916192346155"><rect id="backgroundrect" width="100%" height="100%" x="0" y="0" fill="none" stroke="none"/>
<style type="text/css">
	.st2{fill:#474133;}
</style>

<g class="currentLayer" style=""><title>Layer 1</title><g id="svg_1" class="">
	<g id="svg_2">
		<g id="svg_3">
			<g id="svg_4">
				<g id="svg_5">
					<path class="st2" d="M354.2885514640808,4.553479919433585 c0.53,0.010000000000000004 0.3100000000000001,-0.4 0.3900000000000001,-0.4800000000000001 C353.80855146408084,4.223479919433601 354.3185514640808,4.663479919433598 354.2885514640808,4.553479919433585 z" id="svg_6"/>
					<polygon class="st2" points="345.68854665756226,6.003486633300781 345.83854055404663,5.823478698730469 344.57853078842163,6.313484191894531 " id="svg_7"/>
					<path class="st2" d="M337.5985514640808,6.443479919433599 c0.8,0.6700000000000004 2.93,-0.28 4.38,-0.1 l0.25,0.15000000000000005 l0.6200000000000002,-0.6100000000000002 C341.0985514640808,6.063479919433604 338.8485514640808,6.573479919433595 337.5985514640808,6.443479919433599 z" id="svg_8"/>
					<path class="st2" d="M333.2085514640808,5.133479919433597 c0.28,0.26 -0.92,0.2900000000000001 1.01,0.030000000000000013 c-0.1,-0.030000000000000013 -0.13,-0.040000000000000015 -0.19000000000000006,-0.06000000000000002 C333.8585514640808,5.123479919433606 333.61855146408084,5.133479919433597 333.2085514640808,5.133479919433597 z" id="svg_9"/>
					<path class="st2" d="M334.0285514640808,5.103479919433596 C334.87855146408083,5.043479919433594 333.4585514640808,4.903479919433607 334.0285514640808,5.103479919433596 L334.0285514640808,5.103479919433596 z" id="svg_10"/>
					<path class="st2" d="M330.1085514640808,5.473479919433601 l1.11,-0.3100000000000001 c-0.24000000000000005,-0.15000000000000005 -1.24,-0.14 -0.8800000000000002,-0.28 C329.1985514640808,5.083479919433586 329.43855146408083,5.2334799194335915 330.1085514640808,5.473479919433601 z" id="svg_11"/>
					<path class="st2" d="M329.0685514640808,6.043479919433594 l0.5800000000000002,-0.13 C329.5385514640808,5.843479919433605 329.3885514640808,5.833479919433586 329.0685514640808,6.043479919433594 z" id="svg_12"/>
					<path class="st2" d="M330.86855146408084,5.623479919433606 l-1.22,0.2900000000000001 c0.17,0.11000000000000003 0.2,0.3400000000000002 0.56,-0.11000000000000003 C330.11855146408084,6.013479919433593 330.3485514640808,5.803479919433585 330.86855146408084,5.623479919433606 z" id="svg_13"/>
					<path class="st2" d="M331.5685514640808,5.693479919433599 c0.6400000000000002,0.12000000000000002 1.46,0.18000000000000005 0.3400000000000002,0.4800000000000001 C334.05855146408084,5.973479919433601 333.7085514640808,5.4834799194335915 331.5685514640808,5.693479919433599 z" id="svg_14"/>
					<path class="st2" d="M337.2285514640808,7.20347991943359 l0.8500000000000002,0.16000000000000006 l0.7200000000000002,-0.28 C338.43855146408083,7.223479919433601 337.1685514640808,6.9834799194335915 337.2285514640808,7.20347991943359 z" id="svg_15"/>
					<path class="st2" d="M323.0985514640808,5.45347991943359 c-0.06000000000000002,0.15000000000000005 0.4,0.3900000000000001 0.4900000000000001,0.5800000000000002 l0.8200000000000002,-0.21000000000000005 C323.9785514640808,5.7334799194335915 323.1685514640808,5.673479919433589 323.0985514640808,5.45347991943359 z" id="svg_16"/>
					<path class="st2" d="M323.5885514640808,6.033479919433603 l-1.23,0.3200000000000001 C323.4785514640808,6.333479919433586 323.6685514640808,6.193479919433599 323.5885514640808,6.033479919433603 z" id="svg_17"/>
					<polygon class="st2" points="328.9085478782654,6.843482971191406 330.91852712631226,6.193473815917969 328.5185332298279,6.873481750488281 " id="svg_18"/>
					<polygon class="st2" points="318.3685393333435,5.653480529785156 319.05854177474976,5.273475646972656 317.82853078842163,5.863487243652344 " id="svg_19"/>
					<path class="st2" d="M315.2385514640808,5.863479919433587 c0.51,-0.3100000000000001 -0.7300000000000002,-0.46 -0.19000000000000006,-0.6600000000000003 c-0.8500000000000002,0.09000000000000004 -1.57,0.3700000000000001 -2.21,0.6200000000000002 C313.5185514640808,5.673479919433589 314.2585514640808,5.673479919433589 315.2385514640808,5.863479919433587 z" id="svg_20"/>
					<path class="st2" d="M311.7385514640808,6.193479919433599 c0.3400000000000002,-0.08000000000000003 0.7000000000000002,-0.22000000000000006 1.09,-0.3700000000000001 C312.4585514640808,5.903479919433607 312.0985514640808,6.013479919433593 311.7385514640808,6.193479919433599 z" id="svg_21"/>
					<path class="st2" d="M320.24855146408083,6.373479919433606 c-0.1,-0.09000000000000004 -0.3000000000000001,-0.3200000000000001 -1,-0.3900000000000001 l0.51,0.4 C319.9085514640808,6.383479919433597 320.0785514640808,6.383479919433597 320.24855146408083,6.373479919433606 z" id="svg_22"/>
					<path class="st2" d="M319.7785514640808,6.403479919433607 l-0.020000000000000007,-0.010000000000000004 c-0.53,0.010000000000000004 -0.9,0.020000000000000007 -1.05,0.030000000000000013 C318.8385514640808,6.413479919433598 319.1685514640808,6.413479919433598 319.7785514640808,6.403479919433607 z" id="svg_23"/>
					<path class="st2" d="M320.36855146408084,6.373479919433606 c-0.05000000000000002,0 -0.08000000000000003,0 -0.12000000000000002,0 C320.2985514640808,6.413479919433598 320.3285514640808,6.423479919433589 320.36855146408084,6.373479919433606 z" id="svg_24"/>
					<path class="st2" d="M325.6385514640808,6.623479919433606 c-0.7200000000000002,0.28 -2.22,0.6100000000000002 -0.7300000000000002,0.9 C325.4185514640808,7.20347991943359 324.55855146408084,7.043479919433594 325.6385514640808,6.623479919433606 z" id="svg_25"/>
					<path class="st2" d="M321.0085514640808,6.873479919433606 l1.32,0.040000000000000015 c-0.030000000000000013,-0.11000000000000003 -0.28,-0.26 0.08000000000000003,-0.4 L321.0085514640808,6.873479919433606 z" id="svg_26"/>
					<polygon class="st2" points="320.3685393333435,7.043479919433594 321.0085234642029,6.873481750488281 320.5185332298279,6.863487243652344 " id="svg_27"/>
					<path class="st2" d="M314.0185514640808,6.503479919433602 c-0.56,0.21000000000000005 -1.18,0.25 -1.8800000000000003,0.3100000000000001 c0.7600000000000002,0.05000000000000002 1.54,0.07 2.2800000000000002,0.040000000000000015 C314.5085514640808,6.70347991943359 314.8185514640808,6.45347991943359 314.0185514640808,6.503479919433602 z" id="svg_28"/>
					<path class="st2" d="M316.8185514640808,6.493479919433582 c-0.040000000000000015,0.010000000000000004 -0.09000000000000004,0.020000000000000007 -0.13,0.030000000000000013 C316.7685514640808,6.553479919433585 316.8385514640808,6.563479919433604 316.8185514640808,6.493479919433582 z" id="svg_29"/>
					<polygon class="st2" points="305.20853567123413,7.083473205566406 305.32853078842163,7.153480529785156 305.34855031967163,7.083473205566406 " id="svg_30"/>
					<path class="st2" d="M314.5385514640808,6.923479919433589 c0.5700000000000002,0.06000000000000002 0.9,-0.06000000000000002 1.22,-0.21000000000000005 c-0.4200000000000001,0.06000000000000002 -0.8700000000000002,0.11000000000000003 -1.35,0.14 C314.3585514640808,6.913479919433598 314.3585514640808,6.95347991943359 314.5385514640808,6.923479919433589 z" id="svg_31"/>
					<path class="st2" d="M309.8185514640808,6.473479919433601 c0.3000000000000001,0.08000000000000003 0.6400000000000002,0.14 0.99,0.2 C310.5185514640808,6.543479919433594 309.9185514640808,6.353479919433596 309.8185514640808,6.473479919433601 z" id="svg_32"/>
					<path class="st2" d="M316.49855146408083,6.413479919433598 c0.030000000000000013,-0.010000000000000004 0.05000000000000002,-0.010000000000000004 0.08000000000000003,-0.020000000000000007 C316.3885514640808,6.303479919433585 316.4185514640808,6.353479919433596 316.49855146408083,6.413479919433598 z" id="svg_33"/>
					<path class="st2" d="M316.49855146408083,6.413479919433598 c-0.2900000000000001,0.08000000000000003 -0.51,0.19000000000000006 -0.7400000000000002,0.3000000000000001 c0.3400000000000002,-0.05000000000000002 0.6600000000000003,-0.11000000000000003 0.93,-0.19000000000000006 C316.61855146408084,6.493479919433582 316.5485514640808,6.45347991943359 316.49855146408083,6.413479919433598 z" id="svg_34"/>
					<path class="st2" d="M303.2085514640808,9.903479919433607 c0.09000000000000004,-0.4 1.56,-0.8200000000000002 2.87,-0.4400000000000001 c1.26,-0.3500000000000001 0.3800000000000001,-1.62 -0.7500000000000002,-2.3 c-0.030000000000000013,0.17 -0.030000000000000013,0.3300000000000001 -1.32,0.6200000000000002 c0.46,0.2 2.91,0.3900000000000001 1.82,0.79 c-1.7200000000000002,0.27 -1.42,-0.08000000000000003 -2.26,-0.26 c0.7300000000000002,0.4700000000000001 -2.17,0.79 -1.77,1.5 l1.51,-0.3000000000000001 C303.3285514640808,9.613479919433587 302.7885514640808,9.813479919433604 303.2085514640808,9.903479919433607 z" id="svg_35"/>
					<path class="st2" d="M307.80855146408084,7.093479919433605 l0.53,-0.07 c-0.6100000000000002,-0.040000000000000015 -1.06,-0.19000000000000006 -1.87,-0.46 c-0.8800000000000002,0.23 -1.06,0.3800000000000001 -1.12,0.52 l2.64,-0.05000000000000002 L307.80855146408084,7.093479919433605 z" id="svg_36"/>
					<path class="st2" d="M310.74855146408083,6.93347991943358 c-0.4,0.45 -1.6800000000000004,0.6800000000000004 -0.8700000000000002,1.12 c1.57,-0.09000000000000004 1.09,-0.4 2.02,-0.6300000000000002 c-2.5300000000000002,0.21000000000000005 0.7200000000000002,-0.27 -1.12,-0.4400000000000001 c0.5,-0.09000000000000004 0.9400000000000002,-0.13 1.36,-0.17 c-0.46,-0.030000000000000013 -0.9,-0.08000000000000003 -1.32,-0.14 c0.020000000000000007,0.010000000000000004 0.040000000000000015,0.020000000000000007 0.06000000000000002,0.020000000000000007 l0.010000000000000004,0 l0,0.010000000000000004 c0.11000000000000003,0.05000000000000002 0.15000000000000005,0.08000000000000003 0.020000000000000007,0.05000000000000002 c-0.010000000000000004,0.010000000000000004 -0.040000000000000015,0.010000000000000004 -0.05000000000000002,0.010000000000000004 C310.8385514640808,6.823479919433595 310.7885514640808,6.873479919433606 310.74855146408083,6.93347991943358 c-0.7400000000000002,-0.06000000000000002 -0.12000000000000002,-0.11000000000000003 0.11000000000000003,-0.17 c0.010000000000000004,-0.020000000000000007 0.030000000000000013,-0.040000000000000015 0.030000000000000013,-0.07 l-0.010000000000000004,-0.010000000000000004 l-2.5300000000000002,0.3400000000000002 C308.87855146408083,7.063479919433604 309.5485514640808,7.0234799194335835 310.74855146408083,6.93347991943358 z" id="svg_37"/>
					<path class="st2" d="M323.5985514640808,8.513479919433593 c-0.08000000000000003,-0.030000000000000013 -0.08000000000000003,-0.07 -0.09000000000000004,-0.1 C323.3485514640808,8.483479919433591 323.2885514640808,8.523479919433584 323.5985514640808,8.513479919433593 z" id="svg_38"/>
					<path class="st2" d="M322.5385514640808,8.303479919433585 c0.18000000000000005,-0.07 0.3300000000000001,-0.25 0.93,-0.23 c0.53,0.1 0.010000000000000004,0.21000000000000005 0.040000000000000015,0.3500000000000001 c0.3600000000000001,-0.13 1.25,-0.3700000000000001 0.11000000000000003,-0.52 l-0.18000000000000005,0.07 c-1.03,-0.1 -2.37,-0.5800000000000002 -2.2,-0.6400000000000002 C321.55855146408084,7.693479919433599 321.8385514640808,7.95347991943359 322.5385514640808,8.303479919433585 z" id="svg_39"/>
					<path class="st2" d="M316.5685514640808,7.743479919433582 l-2.11,0.3100000000000001 l1.09,0.3200000000000001 l-0.06000000000000002,-0.22000000000000006 C316.6985514640808,8.18347991943358 316.4285514640808,7.923479919433589 316.5685514640808,7.743479919433582 z" id="svg_40"/>
					<polygon class="st2" points="304.95853567123413,6.873481750488281 305.228524684906,6.413475036621094 304.0285429954529,7.103477478027344 " id="svg_41"/>
					<polygon class="st2" points="302.21854543685913,7.023475646972656 302.30854177474976,6.633476257324219 301.58854055404663,6.893486022949219 " id="svg_42"/>
					<path class="st2" d="M147.63855146408082,10.843479919433605 l-0.6400000000000002,0.09000000000000004 C147.3085514640808,10.913479919433598 147.4985514640808,10.873479919433606 147.63855146408082,10.843479919433605 z" id="svg_43"/>
					<path class="st2" d="M152.2485514640808,10.903479919433607 l0.11000000000000003,-0.2 C152.13855146408082,10.813479919433604 152.0585514640808,10.893479919433588 152.2485514640808,10.903479919433607 z" id="svg_44"/>
					<path class="st2" d="M234.8185514640808,6.593479919433605 c-0.8800000000000002,-0.4200000000000001 -1.85,-1.04 -1.77,-0.6000000000000002 l0.25,0.45 C233.9385514640808,6.403479919433607 234.41855146408082,6.4834799194335915 234.8185514640808,6.593479919433605 z" id="svg_45"/>
					<path class="st2" d="M188.6185514640808,4.033479919433603 c0.08000000000000003,0.05000000000000002 0.16000000000000006,0.11000000000000003 0.24000000000000005,0.17 c0.24000000000000005,-0.12000000000000002 0.46,-0.22000000000000006 0.6700000000000004,-0.3200000000000001 C189.2485514640808,3.93347991943358 188.9385514640808,3.9834799194335915 188.6185514640808,4.033479919433603 z" id="svg_46"/>
					<path class="st2" d="M187.7485514640808,5.7334799194335915 l-1.12,-0.4200000000000001 C186.8785514640808,5.443479919433599 187.2385514640808,5.573479919433595 187.7485514640808,5.7334799194335915 z" id="svg_47"/>
					<path class="st2" d="M122.9985514640808,10.343479919433605 l-0.7400000000000002,0.4200000000000001 C123.39855146408081,10.793479919433594 122.9085514640808,10.563479919433604 122.9985514640808,10.343479919433605 z" id="svg_48"/>
					<path class="st2" d="M274.0885514640808,7.763479919433593 c-0.78,-0.16000000000000006 -1.4,-0.24000000000000005 -1.9500000000000002,-0.26 C273.0785514640808,7.753479919433602 273.8385514640808,8.123479919433606 274.0885514640808,7.763479919433593 z" id="svg_49"/>
					<path class="st2" d="M149.50855146408082,6.2734799194335835 c-0.3800000000000001,0.07 -0.54,0.16000000000000006 -0.53,0.26 C149.3685514640808,6.463479919433581 149.5885514640808,6.383479919433597 149.50855146408082,6.2734799194335835 z" id="svg_50"/>
					<path class="st2" d="M269.87855146408083,7.493479919433582 c0.14,0.040000000000000015 0.27,0.07 0.4100000000000001,0.1 c0.5700000000000002,-0.07 1.1400000000000001,-0.13 1.84,-0.1 C271.43855146408083,7.313479919433604 270.6485514640808,7.193479919433599 269.87855146408083,7.493479919433582 z" id="svg_51"/>
					<path class="st2" d="M33.89855146408081,10.753479919433602 c-0.07,-0.020000000000000007 -0.14,-0.020000000000000007 -0.2,-0.040000000000000015 C33.67855146408081,10.773479919433584 33.76855146408081,10.773479919433584 33.89855146408081,10.753479919433602 z" id="svg_52"/>
					<path class="st2" d="M7.66855146408081,7.913479919433598 c0.25,-0.05000000000000002 0.6700000000000004,-0.08000000000000003 1.07,-0.11000000000000003 C8.538551464080811,7.793479919433594 8.21855146408081,7.813479919433604 7.66855146408081,7.913479919433598 z" id="svg_53"/>
					<path class="st2" d="M291.1585514640808,7.163479919433598 C291.7385514640808,7.113479919433587 291.24855146408083,7.113479919433587 291.1585514640808,7.163479919433598 L291.1585514640808,7.163479919433598 z" id="svg_54"/>
					<path class="st2" d="M294.0385514640808,8.813479919433604 c-0.12000000000000002,0.05000000000000002 -0.22000000000000006,0.12000000000000002 -0.23,0.22000000000000006 C293.8585514640808,8.92347991943359 293.93855146408083,8.853479919433596 294.0385514640808,8.813479919433604 z" id="svg_55"/>
					<path class="st2" d="M264.05855146408084,10.163479919433598 c-0.020000000000000007,0 -0.030000000000000013,0 -0.05000000000000002,0 C264.1785514640808,10.253479919433602 264.1485514640808,10.233479919433591 264.05855146408084,10.163479919433598 z" id="svg_56"/>
					<path class="st2" d="M292.0385514640808,7.333479919433586 c-0.22000000000000006,-0.05000000000000002 -0.4700000000000001,-0.09000000000000004 -0.7500000000000002,-0.11000000000000003 C291.4085514640808,7.253479919433602 291.6385514640808,7.293479919433594 292.0385514640808,7.333479919433586 z" id="svg_57"/>
					<path class="st2" d="M291.9185514640808,7.133479919433597 c0.2,0.010000000000000004 0.3600000000000001,0.020000000000000007 0.51,0.030000000000000013 C292.49855146408083,7.093479919433605 292.4285514640808,7.043479919433594 291.9185514640808,7.133479919433597 z" id="svg_58"/>
					<path class="st2" d="M290.3485514640808,7.20347991943359 c0.3300000000000001,-0.010000000000000004 0.6400000000000002,0 0.9400000000000002,0.020000000000000007 c-0.12000000000000002,-0.030000000000000013 -0.16000000000000006,-0.05000000000000002 -0.13,-0.07 C290.9885514640808,7.163479919433598 290.74855146408083,7.18347991943358 290.3485514640808,7.20347991943359 z" id="svg_59"/>
					<path class="st2" d="M81.62855146408081,8.313479919433604 c-0.040000000000000015,-0.010000000000000004 -0.08000000000000003,-0.020000000000000007 -0.13,-0.040000000000000015 C80.9185514640808,8.463479919433581 81.17855146408081,8.43347991943358 81.62855146408081,8.313479919433604 z" id="svg_60"/>
					<path class="st2" d="M219.3185514640808,9.913479919433598 c0.030000000000000013,0 0.040000000000000015,-0.010000000000000004 0.07,-0.010000000000000004 c-0.030000000000000013,-0.010000000000000004 -0.06000000000000002,-0.020000000000000007 -0.08000000000000003,-0.020000000000000007 L219.3185514640808,9.913479919433598 z" id="svg_61"/>
					<path class="st2" d="M217.1885514640808,10.033479919433603 c0.9500000000000002,-0.45 1.45,-0.3400000000000002 2.11,-0.16000000000000006 l-0.5800000000000002,-1.31 L217.1885514640808,10.033479919433603 z" id="svg_62"/>
					<path class="st2" d="M136.8085514640808,10.523479919433584 l1.45,0.45 c-1.8,0.5700000000000002 -3.07,0.2900000000000001 -1.7200000000000002,0.9 c0.27,-1.35 5.71,0.1 5.99,-1.24 l0.9600000000000002,0.3300000000000001 c-0.28,-0.020000000000000007 -0.3300000000000001,0.05000000000000002 -0.6000000000000002,0.030000000000000013 c1.87,0.7300000000000002 1.45,-0.91 3.9,-0.6400000000000002 c0.8500000000000002,0.13 1.45,0.3400000000000002 0.8600000000000002,0.4900000000000001 l1.9300000000000002,-0.3000000000000001 c0.56,0.030000000000000013 0.4200000000000001,0.27 -0.14,0.23 c0.98,-0.020000000000000007 1.96,-0.06000000000000002 2.95,-0.11000000000000003 l-0.020000000000000007,0.040000000000000015 c0.4200000000000001,-0.21000000000000005 1.36,-0.5700000000000002 1.82,-0.7300000000000002 c0.7600000000000002,0.17 -0.3700000000000001,0.16000000000000006 -0.17,0.3200000000000001 l1.62,-0.4 c0.6900000000000004,0.3100000000000001 -0.6500000000000002,0.7400000000000002 -1.79,0.7200000000000002 c1.6,1.28 1.34,-0.3500000000000001 4.73,0.14 l-1.55,0.3100000000000001 c1.08,0.6800000000000004 2.29,0.3100000000000001 4.16,0.52 c-0.4900000000000001,-0.16000000000000006 -3.73,-0.7600000000000002 -1.96,-1.31 c0.52,0.05000000000000002 1.19,0.010000000000000004 2.12,-0.4 c0.08000000000000003,0.4700000000000001 1.02,0.22000000000000006 2.18,-0.05000000000000002 l0.040000000000000015,0.6400000000000002 c1.25,-0.4400000000000001 1.06,-0.7500000000000002 1.7400000000000002,-1.19 c1.3900000000000001,-0.27 1.79,0.14 2.22,0.46 c2.21,-0.4700000000000001 -1.7000000000000002,-0.3800000000000001 0.8400000000000002,-1.1600000000000001 c1.86,-0.24000000000000005 3.02,-0.8400000000000002 5.01,-1.75 c1.27,-0.1 -0.12000000000000002,0.4300000000000001 0.3600000000000001,0.5 l0.9500000000000002,-0.7600000000000002 c0.27,-0.05000000000000002 0.22000000000000006,0.12000000000000002 0.19000000000000006,0.21000000000000005 c0.8600000000000002,-0.4 -0.07,-0.6400000000000002 1.33,-1.13 c0.12000000000000002,-0.3700000000000001 0.92,-0.2900000000000001 1.86,-0.19000000000000006 c0.9500000000000002,0.08000000000000003 2.03,0.2 2.87,-0.27 c0.4400000000000001,0.15000000000000005 -0.18000000000000005,0.4100000000000001 -0.030000000000000013,0.6400000000000002 c1.1600000000000001,-0.3400000000000002 1.6700000000000004,-0.4400000000000001 2.13,-0.55 c0.46,-0.11000000000000003 0.8700000000000002,-0.25 1.9100000000000001,-0.54 c0.5700000000000002,0.18000000000000005 1.13,0.3700000000000001 1.6900000000000004,0.5700000000000002 c-1.22,-0.6000000000000002 0.45,-1.03 1.98,-1.28 c-0.4300000000000001,-0.2900000000000001 -0.8,-0.55 -1.06,-0.6700000000000004 c0.8,-0.020000000000000007 1.59,-0.020000000000000007 2.39,-0.010000000000000004 c0.27,0.15000000000000005 0,0.3300000000000001 -0.4200000000000001,0.53 c0.17,-0.030000000000000013 0.3200000000000001,-0.06000000000000002 0.45,-0.09000000000000004 c0.8,0.3600000000000001 0.3100000000000001,0.6600000000000003 -0.3400000000000002,0.92 c-0.26,-0.17 -0.52,-0.3400000000000002 -0.78,-0.51 c-0.6300000000000002,0.3000000000000001 -1.21,0.6600000000000003 -1.1400000000000001,1.05 c0.16000000000000006,-0.06000000000000002 0.45,-0.08000000000000003 0.77,-0.07 c-0.16000000000000006,0.08000000000000003 -0.27,0.16000000000000006 -0.21000000000000005,0.24000000000000005 c0.07,0.08000000000000003 0.3200000000000001,-0.030000000000000013 0.7200000000000002,-0.14 l0.4200000000000001,0.78 l0.17,-0.26 l2.95,0.92 c2.3,-0.3900000000000001 4.35,-1.15 7.85,-0.9400000000000002 c-0.93,0.3900000000000001 -0.3000000000000001,0.8200000000000002 -0.4400000000000001,1.4300000000000002 c-0.8500000000000002,-0.79 -2.72,-0.12000000000000002 -4.5,-0.51 c0.93,0.21000000000000005 0.6800000000000004,0.4700000000000001 0.4200000000000001,0.53 l3.29,-0.12000000000000002 c-0.14,0.4900000000000001 0.6300000000000002,0.4800000000000001 1.44,0.81 c-0.5,-1.08 2.48,-0.3000000000000001 3.83,-0.4700000000000001 c0.040000000000000015,0.3400000000000002 -0.3200000000000001,0.6500000000000002 -1.9100000000000001,0.3700000000000001 c1.6600000000000001,0.9600000000000002 2.43,-0.8900000000000002 4.07,-0.05000000000000002 c-0.3900000000000001,-0.040000000000000015 -0.5900000000000002,-0.12000000000000002 -0.77,0.040000000000000015 c0.9500000000000002,-0.19000000000000006 3.14,0.3200000000000001 2.58,0.55 l-0.3900000000000001,-0.040000000000000015 c1.29,0.21000000000000005 3.25,0.46 4.96,0.53 c1.71,0.05000000000000002 3.15,-0.06000000000000002 3.39,-0.46 c0.020000000000000007,0.11000000000000003 -0.4400000000000001,0.99 -0.6200000000000002,1.1400000000000001 l4.8900000000000015,-2.4 c-0.4700000000000001,0.6900000000000004 0.93,2.5700000000000003 -1.25,2.77 c0.6100000000000002,0.16000000000000006 1.36,0.3600000000000001 2.6900000000000004,0.23 c-0.4100000000000001,-0.14 -0.9600000000000002,-1.15 -0.3800000000000001,-1.1600000000000001 c1.51,0.97 1.06,0.53 2.95,1.3800000000000001 c-0.6200000000000002,-0.2 0.18000000000000005,-1.29 1.17,-1.18 c-0.17,0.16000000000000006 -0.010000000000000004,1.13 -0.3800000000000001,1.22 l2.5700000000000003,-0.93 c-0.6300000000000002,0.16000000000000006 -0.18000000000000005,0.9400000000000002 0.3500000000000001,1.3 c-0.24000000000000005,-0.24000000000000005 2.15,0.18000000000000005 2.8200000000000003,0.12000000000000002 l-1.04,-0.3400000000000002 c2.8,0.3900000000000001 2.88,-1.37 5.65,-1.1600000000000001 c-0.3500000000000001,0.21000000000000005 -0.92,1.3800000000000001 0.4900000000000001,1.6 c0.6900000000000004,-0.54 3.03,-2.6100000000000003 5.5,-2.92 l0.46,0.3500000000000001 c0.6300000000000002,-0.09000000000000004 1.27,-0.19000000000000006 1.9,-0.2900000000000001 c-1.21,0.8400000000000002 -4.59,2.45 -6.44,3.07 c1.04,0.3200000000000001 0.27,0.4 1.85,0.46 c0.54,0.3400000000000002 -0.8800000000000002,0.4200000000000001 -1.35,0.4100000000000001 l3.67,0.4 c-0.13,-0.6700000000000004 2.84,-0.54 2.72,-1.12 c-1.34,0.19000000000000006 -2.68,0.3500000000000001 -4.02,0.51 c-0.13,-0.6800000000000004 2.39,-1.7600000000000002 4.98,-1.57 c0.6500000000000002,0.2900000000000001 -0.54,1.18 -0.5,1.4 c0.3500000000000001,-0.22000000000000006 2.49,-0.3500000000000001 2.72,-0.18000000000000005 l-1.12,0.3200000000000001 c1.44,0.3000000000000001 2.39,-0.81 4.11,-0.1 c0.6000000000000002,0.06000000000000002 1.77,0.93 1.8800000000000003,0.54 c-0.9600000000000002,-0.8 -1.08,-3.18 -0.4100000000000001,-3.73 c0.21000000000000005,0.07 3.12,0.81 3.79,1.2 c0.97,0.6200000000000002 -1.51,1.4 -0.6900000000000004,1.94 c0.040000000000000015,-0.18000000000000005 0.5900000000000002,-0.4 0.8200000000000002,-0.4700000000000001 c0.6300000000000002,0.17 -0.27,0.56 1.1,0.51 c0.24000000000000005,-0.6800000000000004 2.7800000000000002,0.11000000000000003 0.6600000000000003,-0.56 c1.34,-0.17 1.42,0.17 2.99,0.17 c-0.4900000000000001,-0.45 1.4300000000000002,-1.47 2.77,-1.6500000000000004 c-0.08000000000000003,0.17 0.22000000000000006,0.4 0.3600000000000001,0.5 c2.74,0.07 4.21,0.3900000000000001 6.77,0.4 c0.24000000000000005,0.17 1.47,0.3700000000000001 0.9400000000000002,0.6600000000000003 c0.3700000000000001,-0.12000000000000002 0.7100000000000002,-0.3500000000000001 1.49,-0.3600000000000001 c1.53,0.5900000000000002 -1.7600000000000002,0.09000000000000004 -0.5900000000000002,0.8 c0.1,-0.3900000000000001 2.04,-0.55 3.16,-0.81 c-0.3500000000000001,-0.6100000000000002 -2.6,-0.09000000000000004 -3.72,0.15000000000000005 c-0.010000000000000004,-0.8400000000000002 1.9500000000000002,-1.7200000000000002 4.61,-2.14 c2.12,-0.23 0.92,0.54 1.29,0.4100000000000001 c3.99,0.1 3.37,-1.49 6.69,-0.9400000000000002 c1.32,0.51 0.08000000000000003,1.07 0.3800000000000001,1.45 c-1.73,0.25 -2.66,-0.3000000000000001 -3.83,-0.27 l1.45,0.24000000000000005 c-0.55,0.18000000000000005 -1.7000000000000002,0.3300000000000001 -2.33,0.18000000000000005 c1.11,0.4900000000000001 6.74,0 9.82,0.3700000000000001 c0.54,-0.19000000000000006 1.48,-0.4 1.03,-0.6100000000000002 l-0.97,0.1 c-0.9,-0.4100000000000001 1.82,-0.6400000000000002 0.5800000000000002,-0.81 c1.3,-0.3400000000000002 2.75,-0.8300000000000002 4.59,-0.6500000000000002 l0.3600000000000001,0.6000000000000002 c-0.040000000000000015,-0.18000000000000005 -1.21,-0.3300000000000001 -1.7200000000000002,-0.12000000000000002 c0.7600000000000002,-0.3000000000000001 2.84,0.7400000000000002 3.6500000000000004,-0.09000000000000004 l-1.3,-0.3800000000000001 c1.3,-0.3500000000000001 2.9,-1.05 4.53,-0.91 c-0.7600000000000002,-0.5800000000000002 -0.3700000000000001,0.08000000000000003 -1.55,-0.5900000000000002 c1.03,0.8500000000000002 -4.16,0.09000000000000004 -2.52,0.97 c-1.21,-0.79 -2.06,-0.28 -3.63,-0.9400000000000002 c0.05000000000000002,0.2 0.56,0.3700000000000001 -0.81,0.3000000000000001 c-0.06000000000000002,0.06000000000000002 -0.2,0.14 -0.2900000000000001,0.18000000000000005 c-0.040000000000000015,-0.010000000000000004 -0.06000000000000002,-0.010000000000000004 -0.09000000000000004,-0.010000000000000004 c0.030000000000000013,0.010000000000000004 0.05000000000000002,0.010000000000000004 0.08000000000000003,0.020000000000000007 c-0.06000000000000002,0.030000000000000013 -0.06000000000000002,0.040000000000000015 0.030000000000000013,0.010000000000000004 c0.3300000000000001,0.08000000000000003 0.5900000000000002,0.18000000000000005 0.7000000000000002,0.2900000000000001 c-0.6700000000000004,0.4800000000000001 -2.84,0.51 -3.56,0.77 c-0.81,-0.08000000000000003 0.3300000000000001,-0.24000000000000005 -0.11000000000000003,-0.45 l-1.09,0.3800000000000001 c-0.12000000000000002,-0.45 -2.17,-0.7000000000000002 -0.26,-1 l-1.7200000000000002,0.020000000000000007 c-1.01,-0.23 -2.4,-0.2900000000000001 -3.26,-0.1 c-0.81,-0.09000000000000004 -2.04,0.52 -1.34,0.16000000000000006 l-2.6900000000000004,0.3000000000000001 l-0.030000000000000013,-0.11000000000000003 c-2.6500000000000004,-0.030000000000000013 -5.46,0.81 -8.5,-0.030000000000000013 c-0.8900000000000002,0.11000000000000003 -1.82,0.24000000000000005 -3.31,0.11000000000000003 l-0.2900000000000001,-0.3900000000000001 c-1.15,0.13 -3.44,-0.3900000000000001 -3.93,-0.010000000000000004 c-1.22,-1.07 -5.55,-0.3300000000000001 -7.5600000000000005,-0.56 l-0.09000000000000004,0.51 c-1.3900000000000001,-0.05000000000000002 -2.72,0.05000000000000002 -4.45,0.19000000000000006 l0.09000000000000004,0.45 c-1.5,0.3100000000000001 -3.81,-0.46 -6.16,-0.4900000000000001 c0.17,-0.17 0.7600000000000002,-0.1 1.18,0.020000000000000007 c-2.7600000000000002,-1.09 -5.95,0.45 -8.45,-0.4100000000000001 c-0.6400000000000002,0.13 -1.1,0.05000000000000002 -1.54,-0.09000000000000004 c0.06000000000000002,0 0.11000000000000003,0 0.16000000000000006,-0.010000000000000004 c-0.06000000000000002,-0.010000000000000004 -0.16000000000000006,-0.020000000000000007 -0.26,-0.020000000000000007 c-0.27,-0.09000000000000004 -0.56,-0.2 -0.8600000000000002,-0.2900000000000001 c0.26,0.12000000000000002 0.51,0.23 0.7300000000000002,0.28 c-0.4900000000000001,-0.020000000000000007 -1.23,0 -1.97,0.07 l-0.28,-0.5 c-0.06000000000000002,0 -0.11000000000000003,0 -0.17,0 c-0.7000000000000002,-0.23 -0.5900000000000002,0.18000000000000005 -0.23,0.5700000000000002 c-0.3700000000000001,0.05000000000000002 -0.7100000000000002,0.12000000000000002 -0.98,0.22000000000000006 c-0.53,-0.8200000000000002 -1.92,0.12000000000000002 -2.6500000000000004,-0.77 c-0.52,0.3700000000000001 -3.67,0.030000000000000013 -4.12,0.8500000000000002 c-0.020000000000000007,-0.11000000000000003 -0.23,-0.18000000000000005 0.17,-0.16000000000000006 c-0.8,-0.16000000000000006 -1.6,-0.3100000000000001 -2.35,-0.13 l-0.2900000000000001,-0.6400000000000002 l-1.84,0.6500000000000002 c-1.04,-0.4800000000000001 -1.46,-0.7300000000000002 -0.3600000000000001,-1.1 c-2.63,0.4700000000000001 -2.11,0.07 -4.36,0.5700000000000002 l0.15000000000000005,-0.3800000000000001 c-0.78,-0.06000000000000002 -2.09,0.3500000000000001 -2.52,-0.030000000000000013 c-0.8400000000000002,-0.4400000000000001 -2.98,-0.7500000000000002 -5.48,-1.07 c-2.49,-0.3300000000000001 -5.33,-0.6500000000000002 -7.5,-1.35 c0.7000000000000002,1.28 -1.99,-0.8200000000000002 -2.3,0.05000000000000002 c-0.22000000000000006,-0.3100000000000001 -0.8200000000000002,-0.56 -0.06000000000000002,-0.6900000000000004 c-2.31,-0.07 -3.34,-0.93 -5.02,-0.4100000000000001 c-0.22000000000000006,-0.3100000000000001 0.55,-0.3300000000000001 0.3400000000000002,-0.52 c-0.19000000000000006,0.030000000000000013 -0.7600000000000002,0.13 -0.97,-0.07 c-0.21000000000000005,-0.2 0.3700000000000001,-0.17 0.7500000000000002,-0.24000000000000005 c-2.3200000000000003,-0.3200000000000001 -2.71,0.4800000000000001 -3,1.24 c-1.13,-0.56 -1.75,-0.5900000000000002 -2.68,-0.18000000000000005 c-0.3900000000000001,-0.3100000000000001 -1.06,-0.6700000000000004 0.4400000000000001,-0.5800000000000002 c-0.4100000000000001,-0.07 -1.6800000000000004,-0.3300000000000001 -2.9,-0.4300000000000001 c-1.21,-0.1 -2.35,-0.030000000000000013 -2.4,0.2900000000000001 c-0.27,-0.17 -1.21,-0.030000000000000013 -1.4300000000000002,0.06000000000000002 c-1.9300000000000002,0.08000000000000003 -2.11,0.05000000000000002 -3.96,0.3900000000000001 l0.53,0.020000000000000007 c-0.6100000000000002,0.8800000000000002 -1.5,0.4100000000000001 -2.94,0.8200000000000002 l0.020000000000000007,-0.09000000000000004 c-3.45,0.23 -1.3800000000000001,0.5800000000000002 -4.76,0.8 l0.3000000000000001,0.4200000000000001 c-0.030000000000000013,1.07 -2.99,0.19000000000000006 -4.73,1.04 l0.7300000000000002,0.09000000000000004 c-0.93,0.6200000000000002 -3.15,-0.6700000000000004 -4.13,-0.6100000000000002 c-0.23,-0.05000000000000002 0.3100000000000001,-0.2 0.5900000000000002,-0.3400000000000002 c-2.68,-0.09000000000000004 -0.2,0.7000000000000002 -2.12,1.19 c-0.4100000000000001,-0.28 0.3200000000000001,-0.91 -0.98,-0.78 c-0.3400000000000002,-0.09000000000000004 -1.24,0.3100000000000001 -2.3200000000000003,0.6500000000000002 c-1.08,0.3400000000000002 -2.33,0.6000000000000002 -3.26,0.3100000000000001 c0.4100000000000001,0.24000000000000005 0.8300000000000002,0.4800000000000001 -0.09000000000000004,0.7200000000000002 c-1.44,0.16000000000000006 -3.87,-0.9 -5.18,-0.11000000000000003 c-0.18000000000000005,-0.07 -0.25,-0.14 -0.26,-0.21000000000000005 c-1.1,0.2 -3.6,0.25 -4.29,0.6700000000000004 c-0.9500000000000002,-1.7000000000000002 -6.98,0.4900000000000001 -6.8900000000000015,-1.02 l-3.45,-0.06000000000000002 l0.1,-0.15000000000000005 c-2.2,-0.2 -2.99,0.14 -3.7800000000000002,0.4800000000000001 c-0.5,-0.12000000000000002 -0.13,-0.25 -0.08000000000000003,-0.3300000000000001 c-3.2,-0.4200000000000001 -3.5300000000000002,-0.3600000000000001 -6.25,0.3000000000000001 l-0.26,-0.51 c-0.7400000000000002,0.25 -4.63,-0.91 -7.8,-0.4100000000000001 c0.030000000000000013,-0.06000000000000002 0.1,-0.15000000000000005 0.3500000000000001,-0.21000000000000005 c-3.56,0.4800000000000001 -8.48,-1.55 -9.81,0.23 l-2.35,0.4100000000000001 c3.03,0.18000000000000005 -0.46,0.78 0.78,1.09 c-1.19,0.09000000000000004 -3.07,-0.5800000000000002 -1.61,-0.6600000000000003 l0.23,0.09000000000000004 c0.55,-0.93 -3.7600000000000002,-0.3800000000000001 -3.67,-1.02 c-5.96,-0.020000000000000007 -11.78,-0.56 -17.37,-0.56 l0.6500000000000002,0.7300000000000002 l-1.9500000000000002,-0.030000000000000013 c-0.51,-0.17 -0.6900000000000004,-0.5700000000000002 0.7000000000000002,-0.54 c-0.7300000000000002,-0.4100000000000001 -2.33,0.3600000000000001 -2.37,0.52 c-2.72,-0.28 1.06,-0.8600000000000002 0.22000000000000006,-0.8700000000000002 l-1.13,0.06000000000000002 l0.26,0.08000000000000003 c-0.92,0.3100000000000001 -1,0.6300000000000002 -2.67,0.6100000000000002 c-1.06,-0.13 -0.55,-0.4400000000000001 -0.9600000000000002,-0.4700000000000001 c0,-0.05000000000000002 -0.14,-0.07 -0.6400000000000002,-0.010000000000000004 l-2.46,-0.030000000000000013 l0.99,0.5700000000000002 c-1.08,0.3000000000000001 -2.31,0 -1.17,0.6400000000000002 c-1.6800000000000004,-1.01 -9.16,-0.19000000000000006 -10.19,-0.4900000000000001 c-1.51,0.45 -3.02,0.4900000000000001 -4.88,0.4900000000000001 c0.4700000000000001,0.11000000000000003 0.7600000000000002,0.7500000000000002 -0.8500000000000002,0.7100000000000002 c0.55,-1.35 -2.96,-0.51 -4.29,-1.42 c1.18,0.6000000000000002 -4.5600000000000005,0.3200000000000001 -2.71,1.1600000000000001 c-1.34,-0.06000000000000002 -0.1,-0.5 -1.13,-0.78 c-3.17,0.6200000000000002 -7.05,-0.07 -10.98,0.27 c-0.05000000000000002,0.18000000000000005 0.6200000000000002,0.4200000000000001 -0.22000000000000006,0.7200000000000002 l-2.12,-0.79 c-0.77,0.13 -0.6700000000000004,1.05 -2.12,0.51 c0.21000000000000005,0.14 0.52,0.3500000000000001 0,0.4300000000000001 c-7.77,-0.5 -15.72,1.56 -23.66,0.4800000000000001 c1.09,0.27 0.3800000000000001,0.3500000000000001 -0.4300000000000001,0.4200000000000001 c0.53,0.040000000000000015 0.020000000000000007,0.4300000000000001 0.14,0.6600000000000003 l-3.3200000000000003,-0.4200000000000001 c-0.55,0.7000000000000002 -3.51,0.3000000000000001 -3.81,0.9600000000000002 l1.03,-0.19000000000000006 c-1.32,0.8500000000000002 2.05,1.51 1.92,2.48 c1.48,-0.9600000000000002 4.15,0.9400000000000002 6.6,-0.4300000000000001 c0.5700000000000002,0.16000000000000006 -0.46,0.3400000000000002 -0.14,0.54 c0.6100000000000002,-0.45 1.3800000000000001,-0.5900000000000002 2.83,-0.5 l-0.16000000000000006,0.11000000000000003 c4.03,-0.3700000000000001 5.78,-0.06000000000000002 10.33,-0.05000000000000002 l-0.3600000000000001,-0.45 c0.98,0.010000000000000004 1.19,0.14 1.6500000000000004,0.24000000000000005 c1.08,-0.78 -2.74,0.12000000000000002 -1.7600000000000002,-0.7300000000000002 c1.34,0.8700000000000002 6.87,-0.3600000000000001 7.8,0.7000000000000002 c1.5,-0.07 -0.4700000000000001,-0.53 1.03,-0.5900000000000002 l0.4100000000000001,0.28 l0.3600000000000001,-0.4 c0.99,0.010000000000000004 1.5,0.3600000000000001 1.55,0.6100000000000002 c-0.24000000000000005,-0.020000000000000007 -0.6700000000000004,0.1 -0.93,0.14 c1.29,0.28 3.59,-0.28 4.03,-0.19000000000000006 l-1.45,-0.12000000000000002 c4.08,-0.46 9.09,-0.28 13.02,-1 l-0.3100000000000001,-0.21000000000000005 c3.01,-0.51 2.43,0.15000000000000005 5.74,-0.13 l-0.12000000000000002,0.06000000000000002 c0.6600000000000003,-0.24000000000000005 1.54,-0.3800000000000001 2.45,-0.3800000000000001 c-0.8300000000000002,0.28 1.59,0.4700000000000001 0.5,0.79 c3.26,-0.53 1.61,-0.3900000000000001 3.75,-1.28 l0.51,0.3600000000000001 c0.7300000000000002,-0.3500000000000001 0.79,-0.53 2.44,-0.6600000000000003 c-1.35,0.3400000000000002 1.07,0.54 -0.4400000000000001,0.99 c3.49,0.7400000000000002 5.15,-0.92 6.76,0.24000000000000005 c1.58,-1.05 -3.02,-0.52 -2.13,-0.7500000000000002 c-0.7500000000000002,-0.3200000000000001 1.31,-0.8 2.4,-0.7100000000000002 c1.11,0.010000000000000004 1.9100000000000001,1.29 4.7,1.24 c-0.28,0 -0.3000000000000001,0.08000000000000003 -0.5700000000000002,0.08000000000000003 c1.05,0.25 2.04,-0.3800000000000001 3.33,0.030000000000000013 c0.7100000000000002,-0.6300000000000002 1.6600000000000001,0.020000000000000007 1.87,-0.77 l-2.56,0.2 c1.45,-0.23 2.81,-1.15 5.21,-0.7200000000000002 c-0.19000000000000006,0.16000000000000006 -0.9,0.3700000000000001 -1.3900000000000001,0.4900000000000001 c0.7000000000000002,0.23 1.35,-0.16000000000000006 2.07,0.08000000000000003 c-0.2,0.79 -3.11,0.18000000000000005 -4.67,0.8 c0.7500000000000002,0.3300000000000001 2.94,-0.5900000000000002 2.16,0.27 c1.12,-1.1 2.75,0.13 4.6400000000000015,-0.7100000000000002 l-0.12000000000000002,0.4800000000000001 c0.3000000000000001,-0.08000000000000003 0.92,-0.3000000000000001 1.47,-0.2900000000000001 l-1,0.6200000000000002 c1.53,-0.54 2.95,0.45 4.42,0.18000000000000005 c-3.07,0 -0.6900000000000004,-0.5700000000000002 -1.99,-0.93 c3.8,-0.6200000000000002 2.18,1.25 6.42,1.04 c-0.5700000000000002,0.06000000000000002 -2.16,-0.2900000000000001 -1.26,-0.51 c0.81,0.1 1.87,0.2900000000000001 2.37,0.54 c2.81,-0.08000000000000003 -0.4300000000000001,-0.4900000000000001 0.77,-0.78 c0.9500000000000002,0.5900000000000002 1.3800000000000001,-0.22000000000000006 2.62,-0.3900000000000001 l0,0.4800000000000001 c3.2,0.3500000000000001 0.8600000000000002,-1 3.74,-0.5900000000000002 l-1.23,0.6600000000000003 l1.51,-0.16000000000000006 l-0.3200000000000001,0.55 c1.6400000000000001,-0.3900000000000001 2.15,-0.28 3.75,-0.09000000000000004 c-0.3700000000000001,-0.3500000000000001 0.22000000000000006,-0.8700000000000002 1.6400000000000001,-0.8600000000000002 c0.9600000000000002,0.3100000000000001 -0.55,0.45 1.46,0.4200000000000001 c-0.46,0.2900000000000001 -0.9600000000000002,0.6600000000000003 -1.83,0.2 c-0.09000000000000004,0.16000000000000006 -0.45,0.2900000000000001 -0.55,0.45 c1.04,0.3500000000000001 2.62,0.12000000000000002 3.35,0.13 c-0.28,-0.020000000000000007 -0.6100000000000002,-0.06000000000000002 -0.79,-0.13 l2.93,-0.6100000000000002 c0.46,0.19000000000000006 0.09000000000000004,0.3300000000000001 -0.28,0.46 c0.5900000000000002,-0.040000000000000015 1.01,-0.26 1.8800000000000003,-0.28 c-0.23,0.3900000000000001 -0.19000000000000006,0.79 -1.42,0.9500000000000002 l2.79,-0.3700000000000001 c0.18000000000000005,0.18000000000000005 1.4100000000000001,0.51 1.05,0.6400000000000002 c1.53,0.27 3.8,-0.6600000000000003 5.83,-0.3000000000000001 c0.11000000000000003,-0.07 0.3200000000000001,-0.14 0.7600000000000002,-0.18000000000000005 c1.92,0.15000000000000005 3.6,0.6900000000000004 5.8900000000000015,0.24000000000000005 l1.26,0.7500000000000002 c1.79,-0.1 -1.71,-0.9500000000000002 1.26,-1.11 c2.11,-0.14 0.7600000000000002,0.6300000000000002 1.49,0.8600000000000002 c1.06,-0.3100000000000001 2.9,-0.9500000000000002 4.8100000000000005,-0.3000000000000001 C137.8985514640808,10.623479919433606 137.4085514640808,10.493479919433582 136.8085514640808,10.523479919433584 zM159.1585514640808,10.273479919433584 c-0.4300000000000001,0.16000000000000006 -1.28,0.55 -1.6300000000000003,0.2900000000000001 C157.9885514640808,9.9734799194336 158.38855146408082,10.213479919433581 159.1585514640808,10.273479919433584 zM191.66855146408082,5.443479919433599 c-0.3400000000000002,0.11000000000000003 -0.81,-0.05000000000000002 -1.32,-0.3100000000000001 C190.7485514640808,5.153479919433607 191.19855146408082,5.243479919433582 191.66855146408082,5.443479919433599 zM284.7785514640808,7.68347991943358 c-0.020000000000000007,0.010000000000000004 -0.030000000000000013,0.010000000000000004 -0.05000000000000002,0.020000000000000007 C283.7785514640808,7.543479919433594 284.11855146408084,7.613479919433587 284.7785514640808,7.68347991943358 zM286.7585514640808,7.853479919433596 c0.2,-0.07 0.18000000000000005,-0.14 0.1,-0.2 c-0.14,0.13 -0.5800000000000002,0.14 -1.08,0.12000000000000002 C285.9085514640808,7.893479919433588 286.1685514640808,7.973479919433601 286.7585514640808,7.853479919433596 zM75.3585514640808,5.123479919433606 l0.3900000000000001,0.12000000000000002 C74.87855146408081,5.393479919433588 75.11855146408081,5.263479919433593 75.3585514640808,5.123479919433606 z" id="svg_63"/>
					<path class="st2" d="M187.85855146408082,5.533479919433603 c-0.11000000000000003,-0.1 -0.13,-0.19000000000000006 -0.14,-0.28 C187.54855146408082,5.313479919433604 187.5285514640808,5.403479919433607 187.85855146408082,5.533479919433603 z" id="svg_64"/>
					<path class="st2" d="M123.13855146408082,10.263479919433593 l-0.07,-0.010000000000000004 c-0.040000000000000015,0.030000000000000013 -0.06000000000000002,0.06000000000000002 -0.07,0.09000000000000004 L123.13855146408082,10.263479919433593 z" id="svg_65"/>
					<path class="st2" d="M256.12855146408083,11.93347991943358 c-0.4100000000000001,-0.08000000000000003 -0.6300000000000002,-0.17 -0.78,-0.26 C255.32855146408082,11.783479919433603 255.50855146408082,11.883479919433597 256.12855146408083,11.93347991943358 z" id="svg_66"/>
					<path class="st2" d="M297.1785514640808,6.7734799194335835 l-1.26,0.17 c0.6100000000000002,-0.040000000000000015 0.8300000000000002,0.06000000000000002 1.1400000000000001,0.12000000000000002 C297.0285514640808,6.95347991943359 296.7885514640808,6.803479919433585 297.1785514640808,6.7734799194335835 z" id="svg_67"/>
					<path class="st2" d="M308.2585514640808,9.383479919433597 c0.18000000000000005,-0.07 0.3900000000000001,-0.020000000000000007 0.5700000000000002,-0.09000000000000004 l-0.06000000000000002,-0.22000000000000006 C307.9785514640808,9.113479919433587 307.43855146408083,9.323479919433595 308.2585514640808,9.383479919433597 z" id="svg_68"/>
					<path class="st2" d="M298.3985514640808,8.343479919433605 c0.11000000000000003,0.4 0.9,0.24000000000000005 1.78,0.14 c-0.05000000000000002,0 -0.1,0.010000000000000004 -0.16000000000000006,0 C300.2685514640808,7.913479919433598 299.3385514640808,8.123479919433606 298.3985514640808,8.343479919433605 z" id="svg_69"/>
					<path class="st2" d="M300.3885514640808,8.463479919433581 c0.27,-0.030000000000000013 0.55,-0.05000000000000002 0.8200000000000002,-0.040000000000000015 C301.30855146408084,8.1934799194336 300.87855146408083,8.383479919433597 300.3885514640808,8.463479919433581 z" id="svg_70"/>
					<path class="st2" d="M289.24855146408083,7.533479919433603 c0.4200000000000001,0.1 0.25,-0.52 0.4900000000000001,-0.3600000000000001 C290.1985514640808,6.643479919433588 286.9585514640808,7.853479919433596 289.24855146408083,7.533479919433603 z" id="svg_71"/>
					<polygon class="st2" points="299.1585478782654,9.653480529785156 298.82853078842163,9.163475036621094 298.33854055404663,9.583473205566406 " id="svg_72"/>
					<path class="st2" d="M292.1485514640808,9.493479919433582 l1.42,0.11000000000000003 c-0.020000000000000007,-0.08000000000000003 0.16000000000000006,-0.14 0.3800000000000001,-0.18000000000000005 C293.0685514640808,9.42347991943359 292.1085514640808,9.343479919433605 292.1485514640808,9.493479919433582 z" id="svg_73"/>
					<path class="st2" d="M293.9485514640808,9.42347991943359 c0.45,0 0.8900000000000002,-0.030000000000000013 1.1400000000000001,-0.12000000000000002 C294.8385514640808,9.313479919433604 294.30855146408084,9.353479919433596 293.9485514640808,9.42347991943359 z" id="svg_74"/>
					<polygon class="st2" points="297.228524684906,9.873481750488281 296.80854177474976,9.773475646972656 295.79853200912476,9.773475646972656 " id="svg_75"/>
					<path class="st2" d="M276.9185514640808,9.643479919433588 l-1.55,0.16000000000000006 c-0.16000000000000006,0.17 0.27,0.27 0.8400000000000002,0.2 C276.5885514640808,9.873479919433606 277.1585514640808,9.803479919433585 276.9185514640808,9.643479919433588 z" id="svg_76"/>
					<path class="st2" d="M281.6085514640808,10.963479919433581 c-0.4200000000000001,-0.1 -0.45,-0.21000000000000005 -0.6900000000000004,-0.3700000000000001 l-0.040000000000000015,0.6200000000000002 L281.6085514640808,10.963479919433581 z" id="svg_77"/>
					<path class="st2" d="M277.0985514640808,11.153479919433607 c-0.15000000000000005,0.17 -2.25,0.52 -0.28,0.46 C276.9685514640808,11.4434799194336 278.5185514640808,11.283479919433603 277.0985514640808,11.153479919433607 z" id="svg_78"/>
					<polygon class="st2" points="253.77855825424194,10.183479309082031 254.16854238510132,10.183479309082031 254.13854360580444,9.163475036621094 " id="svg_79"/>
					<path class="st2" d="M233.0885514640808,11.70347991943359 c1.82,0.3400000000000002 0.4800000000000001,-0.6000000000000002 2.12,-0.21000000000000005 c0.45,-0.22000000000000006 -1.34,-0.3200000000000001 -0.8900000000000002,-0.51 C233.19855146408082,11.18347991943358 232.6185514640808,11.003479919433602 233.0885514640808,11.70347991943359 z" id="svg_80"/>
					<path class="st2" d="M234.3185514640808,10.983479919433591 c0.18000000000000005,-0.030000000000000013 0.3700000000000001,-0.07 0.5800000000000002,-0.12000000000000002 C234.5685514640808,10.913479919433598 234.41855146408082,10.95347991943359 234.3185514640808,10.983479919433591 z" id="svg_81"/>
					<polygon class="st2" points="3.30855131149292,7.693473815917969 2.1185507774353027,7.563484191894531 2.9085516929626465,7.853477478027344 " id="svg_82"/>
					<path class="st2" d="M1.1085514640808114,8.603479919433596 l-0.3300000000000001,-0.6300000000000002 l-0.6600000000000003,0.6400000000000002 C0.378551464080811,8.573479919433595 0.8985514640808105,8.4734799194336 1.1085514640808114,8.603479919433596 z" id="svg_83"/>
					<path class="st2" d="M162.7785514640808,11.073479919433595 l0.07,-0.17 c-0.22000000000000006,-0.13 -0.51,-0.1 -1.1,-0.020000000000000007 L162.7785514640808,11.073479919433595 z" id="svg_84"/>
					<polygon class="st2" points="146.11855459213257,11.433479309082031 146.3885588645935,11.453483581542969 145.8885588645935,10.843482971191406 " id="svg_85"/>
					<path class="st2" d="M132.66855146408082,11.603479919433596 c0.54,0.05000000000000002 1.19,-0.06000000000000002 1.7400000000000002,-0.010000000000000004 C133.2085514640808,11.653479919433607 132.54855146408082,10.873479919433606 132.66855146408082,11.603479919433596 z" id="svg_86"/>
				</g>
			</g>
		</g>
	</g>
</g></g></svg>