<svg xmlns="http://www.w3.org/2000/svg" xmlns:xlink="http://www.w3.org/1999/xlink" version="1.1" style="" xml:space="preserve" width="91.73333333333335" height="83"><rect id="backgroundrect" width="100%" height="100%" x="0" y="0" fill="none" stroke="none" class="" style=""/>
<style type="text/css">
	.st0{fill:none;stroke:#474133;stroke-miterlimit:10;}
	.st1{fill:none;stroke:#474133;stroke-width:2;stroke-miterlimit:10;}
</style>








<g class="currentLayer" style=""><title>Layer 1</title><path class="st0 selected" d="M31.922229177951806,78.21900017619133 c0.030000000000000013,1.27 -7.57,2.6 -13.4,2.81 c-4.17,0.15000000000000005 -10.48,-0.15000000000000005 -10.6,-1.28 c-0.11000000000000003,-1.04 5.08,-2.62 9.57,-3.19 C24.482229177951808,75.66900017619133 31.892229177951805,76.96900017619133 31.922229177951806,78.21900017619133 z" id="svg_1"/><path class="st0 selected" d="M31.79222917795181,72.46900017619133 c-0.9,1.6600000000000001 -9.99,-0.7000000000000002 -17.36,-5.23 c-8.02,-4.93 -14.45,-12.72 -13.28,-14.3 c1.27,-1.71 11.56,3.88 17.23,7.53 C23.682229177951825,63.879000176191326 32.78222917795182,70.62900017619133 31.79222917795181,72.46900017619133 z" id="svg_2"/><path class="st0 selected" d="M37.662229177951815,68.25900017619134 c-2.58,1.36 -12.61,-12.9 -17.74,-24.26 c-0.8900000000000002,-1.96 -4.16,-9.21 -2.68,-10.21 c0.8200000000000002,-0.55 2.77,1.02 3.5700000000000003,1.6600000000000001 C29.682229177951825,42.56900017619133 40.85222917795181,66.56900017619132 37.662229177951815,68.25900017619134 z" id="svg_3"/><path class="st0 selected" d="M46.09222917795182,65.57900017619133 c-4.55,0.18000000000000005 -10.64,-22.99 -8.43,-44.17 c0.8600000000000002,-8.28 3.45,-20.64 6.6400000000000015,-20.68 c3.93,-0.040000000000000015 6.9,18.75 7.02,19.53 C54.54222917795181,41.23900017619133 50.70222917795181,65.39900017619134 46.09222917795182,65.57900017619133 z" id="svg_4"/><path class="st0 selected" d="M54.26222917795181,68.50900017619134 c-1.9,-1.23 3.79,-15.01 13.15,-24.9 c0.6900000000000004,-0.7300000000000002 6.02,-6.36 7.28,-5.48 c1.24,0.8700000000000002 -2.04,7.72 -4.21,11.620000000000001 C65.0222291779518,59.54900017619133 56.0822291779518,69.67900017619132 54.26222917795181,68.50900017619134 z" id="svg_5"/><path class="st0 selected" d="M59.112229177951804,72.84900017619132 c-1.06,-1.84 11.3,-10.43 16.75,-13.95 c4.94,-3.19 12.77,-8.19 14.78,-6.22 c0.7400000000000002,0.7200000000000002 0.4400000000000001,2.13 0.26,2.94 c-0.4200000000000001,1.85 -2.14,6.62 -18,13.15 C66.69222917795182,71.32900017619133 59.85222917795181,74.13900017619133 59.112229177951804,72.84900017619132 z" id="svg_6"/><path class="st0 selected" d="M61.662229177951815,77.95900017619132 c0.17,-2.1 11.6,-3.23 17.33,-0.040000000000000015 c0.55,0.3100000000000001 1.92,1.07 1.82,1.83 c-0.18000000000000005,1.35 -4.8100000000000005,1.7400000000000002 -5.36,1.79 C69.06222917795182,82.07900017619133 61.53222917795182,79.68900017619133 61.662229177951815,77.95900017619132 z" id="svg_7"/><path class="st1 selected" d="M46.2422291779518,79.48900017619133 c-1.33,-0.28 -2.6500000000000004,-0.55 -3.98,-0.8300000000000002 c-0.26,-0.3400000000000002 -1.03,-1.45 -0.77,-2.73 c0.3900000000000001,-1.92 2.74,-2.58 3.36,-2.7600000000000002 c0.4900000000000001,-0.14 1.6600000000000001,-0.45 3.02,0 c0.4400000000000001,0.15000000000000005 1.9,0.6300000000000002 2.55,2.1 c0.11000000000000003,0.24000000000000005 0.7100000000000002,1.59 0,2.81 c-0.6600000000000003,1.13 -1.97,1.33 -2.43,1.4 c-2.36,0.3700000000000001 -4.45,-1.37 -4.34,-1.6600000000000001 c0.11000000000000003,-0.3000000000000001 2.44,0.98 3.96,-0.13 c0.4700000000000001,-0.3500000000000001 1.01,-1.03 0.8900000000000002,-1.77 c-0.14,-0.9400000000000002 -1.23,-1.35 -1.4100000000000001,-1.42 c-0.99,-0.3700000000000001 -2.18,-0.1 -2.25,0.26 c-0.07,0.4200000000000001 1.46,0.8700000000000002 1.3800000000000001,1.1600000000000001 c-0.05000000000000002,0.19000000000000006 -0.77,0.26 -2.96,0 " id="svg_8"/></g></svg>