<?xml version="1.0" encoding="utf-8"?>
<!-- Generator: Adobe Illustrator 25.2.0, SVG Export Plug-In . SVG Version: 6.00 Build 0)  -->
<svg version="1.1" id="Warstwa_1" xmlns="http://www.w3.org/2000/svg" xmlns:xlink="http://www.w3.org/1999/xlink" x="0px" y="0px"
	 viewBox="0 0 379 243" style="enable-background:new 0 0 379 243;" xml:space="preserve">
<style type="text/css">
	.st0{fill:none;stroke:#474133;stroke-miterlimit:10;}
	.st1{fill:none;stroke:#474133;stroke-width:2;stroke-miterlimit:10;}
	.st2{fill:#474133;}
</style>
<path class="st0" d="M174.32,85.11c0.03,1.27-7.57,2.6-13.4,2.81c-4.17,0.15-10.48-0.15-10.6-1.28c-0.11-1.04,5.08-2.62,9.57-3.19
	C166.88,82.56,174.29,83.86,174.32,85.11z"/>
<path class="st0" d="M174.19,79.36c-0.9,1.66-9.99-0.7-17.36-5.23c-8.02-4.93-14.45-12.72-13.28-14.3
	c1.27-1.71,11.56,3.88,17.23,7.53C166.08,70.77,175.18,77.52,174.19,79.36z"/>
<path class="st0" d="M180.06,75.15c-2.58,1.36-12.61-12.9-17.74-24.26c-0.89-1.96-4.16-9.21-2.68-10.21
	c0.82-0.55,2.77,1.02,3.57,1.66C172.08,49.46,183.25,73.46,180.06,75.15z"/>
<path class="st0" d="M188.49,72.47c-4.55,0.18-10.64-22.99-8.43-44.17c0.86-8.28,3.45-20.64,6.64-20.68
	c3.93-0.04,6.9,18.75,7.02,19.53C196.94,48.13,193.1,72.29,188.49,72.47z"/>
<path class="st0" d="M196.66,75.4c-1.9-1.23,3.79-15.01,13.15-24.9c0.69-0.73,6.02-6.36,7.28-5.48c1.24,0.87-2.04,7.72-4.21,11.62
	C207.42,66.44,198.48,76.57,196.66,75.4z"/>
<path class="st0" d="M201.51,79.74c-1.06-1.84,11.3-10.43,16.75-13.95c4.94-3.19,12.77-8.19,14.78-6.22
	c0.74,0.72,0.44,2.13,0.26,2.94c-0.42,1.85-2.14,6.62-18,13.15C209.09,78.22,202.25,81.03,201.51,79.74z"/>
<path class="st0" d="M204.06,84.85c0.17-2.1,11.6-3.23,17.33-0.04c0.55,0.31,1.92,1.07,1.82,1.83c-0.18,1.35-4.81,1.74-5.36,1.79
	C211.46,88.97,203.93,86.58,204.06,84.85z"/>
<path class="st1" d="M188.64,86.38c-1.33-0.28-2.65-0.55-3.98-0.83c-0.26-0.34-1.03-1.45-0.77-2.73c0.39-1.92,2.74-2.58,3.36-2.76
	c0.49-0.14,1.66-0.45,3.02,0c0.44,0.15,1.9,0.63,2.55,2.1c0.11,0.24,0.71,1.59,0,2.81c-0.66,1.13-1.97,1.33-2.43,1.4
	c-2.36,0.37-4.45-1.37-4.34-1.66c0.11-0.3,2.44,0.98,3.96-0.13c0.47-0.35,1.01-1.03,0.89-1.77c-0.14-0.94-1.23-1.35-1.41-1.42
	c-0.99-0.37-2.18-0.1-2.25,0.26c-0.07,0.42,1.46,0.87,1.38,1.16c-0.05,0.19-0.77,0.26-2.96,0"/>
<g>
	<path class="st2" d="M11.29,140.94v-24.48c0-0.24,0.14-0.36,0.43-0.36h2.18c0.28,0,0.43,0.12,0.43,0.36v11.66
		c0,0.07,0.03,0.12,0.09,0.14c0.06,0.02,0.1,0,0.13-0.07l8.26-11.84c0.14-0.17,0.31-0.25,0.51-0.25h2.4c0.17,0,0.28,0.04,0.34,0.13
		c0.06,0.08,0.04,0.19-0.04,0.31l-6.67,9.76c-0.06,0.1-0.07,0.17-0.04,0.22l7.36,14.36l0.04,0.14c0,0.19-0.13,0.29-0.38,0.29h-2.44
		c-0.23,0-0.38-0.1-0.47-0.29l-6.16-12.24c-0.03-0.1-0.1-0.1-0.21,0l-2.65,3.46c-0.03,0.02-0.04,0.08-0.04,0.18v8.53
		c0,0.24-0.14,0.36-0.43,0.36h-2.18C11.44,141.3,11.29,141.18,11.29,140.94z"/>
	<path class="st2" d="M44.23,141.01l-4.36-11.12c-0.03-0.07-0.09-0.11-0.17-0.11h-3.72c-0.11,0-0.17,0.05-0.17,0.14v11.02
		c0,0.24-0.14,0.36-0.43,0.36H33.2c-0.29,0-0.43-0.12-0.43-0.36v-24.48c0-0.24,0.14-0.36,0.43-0.36h7.06c2.08,0,3.76,0.64,5.05,1.93
		c1.28,1.28,1.93,2.96,1.93,5.02c0,1.56-0.4,2.9-1.2,4.03c-0.8,1.13-1.88,1.92-3.25,2.38c-0.11,0.02-0.16,0.08-0.13,0.18l4.66,11.27
		l0.04,0.14c0,0.17-0.13,0.25-0.39,0.25h-2.22C44.49,141.3,44.32,141.2,44.23,141.01z M35.81,118.47v9.11c0,0.1,0.06,0.14,0.17,0.14
		h3.85c1.31,0,2.37-0.43,3.17-1.28c0.8-0.85,1.2-1.99,1.2-3.4c0-1.42-0.4-2.56-1.2-3.42c-0.8-0.86-1.85-1.3-3.17-1.3h-3.85
		C35.86,118.33,35.81,118.38,35.81,118.47z"/>
	<path class="st2" d="M57.84,140.9v-10.76c0-0.1-0.01-0.16-0.04-0.18l-5.95-13.43l-0.04-0.14c0-0.19,0.13-0.29,0.38-0.29h2.31
		c0.26,0,0.43,0.1,0.51,0.29l4.19,10.55c0.03,0.05,0.07,0.07,0.13,0.07c0.06,0,0.1-0.02,0.13-0.07l4.19-10.55
		c0.09-0.19,0.26-0.29,0.51-0.29h2.31c0.14,0,0.25,0.04,0.32,0.13c0.07,0.08,0.08,0.19,0.02,0.31l-5.9,13.43
		c-0.03,0.02-0.04,0.08-0.04,0.18v10.76c0,0.24-0.14,0.36-0.43,0.36h-2.18C57.98,141.26,57.84,141.14,57.84,140.9z"/>
	<path class="st2" d="M73.84,139.82c-1.31-1.18-1.97-2.71-1.97-4.61v-0.83c0-0.24,0.14-0.36,0.43-0.36h2.1
		c0.28,0,0.43,0.12,0.43,0.36v0.72c0,1.27,0.38,2.3,1.15,3.08s1.77,1.17,2.99,1.17c1.2,0,2.2-0.37,2.99-1.12
		c0.8-0.74,1.2-1.73,1.2-2.95c0-0.82-0.19-1.52-0.58-2.11c-0.39-0.59-0.88-1.1-1.5-1.55c-0.61-0.44-1.63-1.12-3.06-2.03
		c-1.43-0.89-2.55-1.65-3.38-2.29c-0.83-0.64-1.5-1.4-2.03-2.29c-0.53-0.89-0.79-1.93-0.79-3.13c0-1.87,0.64-3.35,1.92-4.45
		c1.28-1.09,2.95-1.64,5.01-1.64c2.17,0,3.9,0.59,5.2,1.78c1.3,1.19,1.95,2.77,1.95,4.73v0.9c0,0.24-0.14,0.36-0.43,0.36h-2.14
		c-0.29,0-0.43-0.12-0.43-0.36v-0.94c0-1.27-0.38-2.3-1.13-3.08c-0.76-0.78-1.76-1.17-3.02-1.17c-1.14,0-2.08,0.34-2.82,1.03
		c-0.74,0.68-1.11,1.65-1.11,2.9c0,0.74,0.16,1.4,0.49,1.96c0.33,0.56,0.82,1.1,1.48,1.6c0.66,0.5,1.63,1.16,2.91,1.98
		c1.71,1.06,2.99,1.91,3.83,2.57c0.84,0.66,1.49,1.38,1.95,2.16c0.46,0.78,0.68,1.72,0.68,2.83c0,1.97-0.67,3.55-2.01,4.73
		c-1.34,1.19-3.07,1.78-5.18,1.78C76.86,141.59,75.15,141,73.84,139.82z"/>
	<path class="st2" d="M106.05,116.46v1.51c0,0.24-0.14,0.36-0.43,0.36h-5.65c-0.11,0-0.17,0.05-0.17,0.14v22.46
		c0,0.24-0.14,0.36-0.43,0.36h-2.18c-0.29,0-0.43-0.12-0.43-0.36v-22.46c0-0.1-0.06-0.14-0.17-0.14h-5.3
		c-0.29,0-0.43-0.12-0.43-0.36v-1.51c0-0.24,0.14-0.36,0.43-0.36h14.33C105.9,116.1,106.05,116.22,106.05,116.46z"/>
	<path class="st2" d="M117.21,140.9v-10.76c0-0.1-0.01-0.16-0.04-0.18l-5.95-13.43l-0.04-0.14c0-0.19,0.13-0.29,0.38-0.29h2.31
		c0.26,0,0.43,0.1,0.51,0.29l4.19,10.55c0.03,0.05,0.07,0.07,0.13,0.07c0.06,0,0.1-0.02,0.13-0.07l4.19-10.55
		c0.09-0.19,0.26-0.29,0.51-0.29h2.31c0.14,0,0.25,0.04,0.32,0.13c0.07,0.08,0.08,0.19,0.02,0.31l-5.9,13.43
		c-0.03,0.02-0.04,0.08-0.04,0.18v10.76c0,0.24-0.14,0.36-0.43,0.36h-2.18C117.35,141.26,117.21,141.14,117.21,140.9z"/>
	<path class="st2" d="M144.5,116.1h2.14c0.28,0,0.43,0.12,0.43,0.36v24.48c0,0.24-0.14,0.36-0.43,0.36h-2.52
		c-0.23,0-0.38-0.1-0.47-0.29l-8.34-18.61c-0.03-0.07-0.07-0.1-0.13-0.09c-0.06,0.01-0.09,0.05-0.09,0.13l0.04,18.5
		c0,0.24-0.14,0.36-0.43,0.36h-2.18c-0.29,0-0.43-0.12-0.43-0.36v-24.48c0-0.24,0.14-0.36,0.43-0.36h2.48c0.23,0,0.39,0.1,0.47,0.29
		l8.38,18.65c0.03,0.07,0.07,0.1,0.13,0.09s0.09-0.05,0.09-0.13v-18.54C144.08,116.22,144.22,116.1,144.5,116.1z"/>
	<path class="st2" d="M166.15,140.97l-1.07-4.46c0-0.05-0.02-0.08-0.06-0.11c-0.04-0.02-0.09-0.04-0.15-0.04h-7.74
		c-0.06,0-0.11,0.01-0.15,0.04c-0.04,0.02-0.06,0.06-0.06,0.11l-1.07,4.46c-0.03,0.22-0.19,0.32-0.47,0.32h-2.18
		c-0.14,0-0.25-0.04-0.32-0.11c-0.07-0.07-0.09-0.17-0.06-0.29l6.42-24.48c0.06-0.22,0.21-0.32,0.47-0.32h2.57
		c0.28,0,0.44,0.11,0.47,0.32l6.5,24.48v0.07c0,0.22-0.13,0.32-0.39,0.32h-2.22C166.36,141.3,166.21,141.19,166.15,140.97z
		 M157.59,134.28h6.76c0.09,0,0.13-0.05,0.13-0.14l-3.42-14.15c-0.03-0.07-0.06-0.11-0.09-0.11c-0.03,0-0.06,0.04-0.09,0.11
		l-3.42,14.15C157.47,134.23,157.51,134.28,157.59,134.28z"/>
	<path class="st2" d="M186.38,139.82c-1.31-1.18-1.97-2.71-1.97-4.61v-0.83c0-0.24,0.14-0.36,0.43-0.36h2.1
		c0.28,0,0.43,0.12,0.43,0.36v0.72c0,1.27,0.38,2.3,1.15,3.08s1.77,1.17,2.99,1.17c1.2,0,2.2-0.37,2.99-1.12
		c0.8-0.74,1.2-1.73,1.2-2.95c0-0.82-0.19-1.52-0.58-2.11c-0.39-0.59-0.88-1.1-1.5-1.55c-0.61-0.44-1.63-1.12-3.06-2.03
		c-1.43-0.89-2.55-1.65-3.38-2.29c-0.83-0.64-1.5-1.4-2.03-2.29c-0.53-0.89-0.79-1.93-0.79-3.13c0-1.87,0.64-3.35,1.92-4.45
		c1.28-1.09,2.95-1.64,5.01-1.64c2.17,0,3.9,0.59,5.2,1.78c1.3,1.19,1.95,2.77,1.95,4.73v0.9c0,0.24-0.14,0.36-0.43,0.36h-2.14
		c-0.29,0-0.43-0.12-0.43-0.36v-0.94c0-1.27-0.38-2.3-1.13-3.08c-0.76-0.78-1.76-1.17-3.02-1.17c-1.14,0-2.08,0.34-2.82,1.03
		c-0.74,0.68-1.11,1.65-1.11,2.9c0,0.74,0.16,1.4,0.49,1.96c0.33,0.56,0.82,1.1,1.48,1.6c0.66,0.5,1.63,1.16,2.91,1.98
		c1.71,1.06,2.99,1.91,3.83,2.57c0.84,0.66,1.49,1.38,1.95,2.16c0.46,0.78,0.68,1.72,0.68,2.83c0,1.97-0.67,3.55-2.01,4.73
		c-1.34,1.19-3.07,1.78-5.18,1.78C189.41,141.59,187.69,141,186.38,139.82z M189.46,113.6c-0.06-0.08-0.04-0.19,0.04-0.31l2.65-3.92
		c0.14-0.17,0.31-0.25,0.51-0.25h1.75c0.17,0,0.28,0.04,0.32,0.13c0.04,0.08,0.02,0.19-0.06,0.31l-2.99,3.92
		c-0.14,0.17-0.31,0.25-0.51,0.25h-1.37C189.63,113.72,189.52,113.68,189.46,113.6z"/>
	<path class="st2" d="M219.19,116.1h2.23c0.28,0,0.43,0.12,0.43,0.36v24.48c0,0.24-0.14,0.36-0.43,0.36h-2.18
		c-0.29,0-0.43-0.12-0.43-0.36v-19.3c0-0.07-0.02-0.11-0.06-0.11c-0.04,0-0.09,0.02-0.15,0.07l-4.45,7.78
		c-0.09,0.17-0.23,0.25-0.43,0.25c-0.23,0-0.38-0.08-0.47-0.25l-4.45-7.74c-0.06-0.05-0.11-0.07-0.15-0.07
		c-0.04,0-0.06,0.04-0.06,0.11v19.26c0,0.24-0.14,0.36-0.43,0.36h-2.18c-0.29,0-0.43-0.12-0.43-0.36v-24.48
		c0-0.24,0.14-0.36,0.43-0.36h2.22c0.26,0,0.43,0.08,0.51,0.25l4.88,8.32c0.03,0.05,0.07,0.07,0.13,0.07c0.06,0,0.1-0.02,0.13-0.07
		l4.83-8.32C218.77,116.18,218.94,116.1,219.19,116.1z"/>
	<path class="st2" d="M230.06,140.94v-24.48c0-0.24,0.14-0.36,0.43-0.36h2.18c0.29,0,0.43,0.12,0.43,0.36v24.48
		c0,0.24-0.14,0.36-0.43,0.36h-2.18C230.2,141.3,230.06,141.18,230.06,140.94z"/>
	<path class="st2" d="M254.53,118.33h-9.92c-0.11,0-0.17,0.05-0.17,0.14v8.93c0,0.1,0.06,0.14,0.17,0.14h6.25
		c0.28,0,0.43,0.12,0.43,0.36v1.55c0,0.24-0.14,0.36-0.43,0.36h-6.25c-0.11,0-0.17,0.05-0.17,0.14v8.96c0,0.1,0.06,0.14,0.17,0.14
		h9.92c0.29,0,0.43,0.12,0.43,0.36v1.51c0,0.24-0.14,0.36-0.43,0.36h-12.71c-0.29,0-0.43-0.12-0.43-0.36v-24.48
		c0-0.24,0.14-0.36,0.43-0.36h12.71c0.29,0,0.43,0.12,0.43,0.36v1.51C254.96,118.21,254.81,118.33,254.53,118.33z"/>
	<path class="st2" d="M262.57,139.82c-1.31-1.18-1.97-2.71-1.97-4.61v-0.83c0-0.24,0.14-0.36,0.43-0.36h2.1
		c0.29,0,0.43,0.12,0.43,0.36v0.72c0,1.27,0.39,2.3,1.16,3.08c0.77,0.78,1.77,1.17,2.99,1.17c1.2,0,2.2-0.37,3-1.12
		c0.8-0.74,1.2-1.73,1.2-2.95c0-0.82-0.19-1.52-0.58-2.11c-0.38-0.59-0.88-1.1-1.5-1.55c-0.61-0.44-1.63-1.12-3.06-2.03
		c-1.43-0.89-2.55-1.65-3.38-2.29c-0.83-0.64-1.5-1.4-2.03-2.29c-0.53-0.89-0.79-1.93-0.79-3.13c0-1.87,0.64-3.35,1.92-4.45
		c1.28-1.09,2.95-1.64,5-1.64c2.17,0,3.9,0.59,5.2,1.78c1.3,1.19,1.95,2.77,1.95,4.73v0.9c0,0.24-0.14,0.36-0.43,0.36h-2.14
		c-0.29,0-0.43-0.12-0.43-0.36v-0.94c0-1.27-0.38-2.3-1.13-3.08c-0.76-0.78-1.76-1.17-3.02-1.17c-1.14,0-2.08,0.34-2.82,1.03
		s-1.11,1.65-1.11,2.9c0,0.74,0.16,1.4,0.49,1.96c0.33,0.56,0.82,1.1,1.48,1.6s1.63,1.16,2.91,1.98c1.71,1.06,2.99,1.91,3.83,2.57
		c0.84,0.66,1.49,1.38,1.95,2.16c0.46,0.78,0.68,1.72,0.68,2.83c0,1.97-0.67,3.55-2.01,4.73c-1.34,1.19-3.07,1.78-5.18,1.78
		S263.88,141,262.57,139.82z"/>
	<path class="st2" d="M280.15,140.94v-1.66c0-0.12,0.04-0.26,0.13-0.43l10.4-20.34c0.03-0.05,0.03-0.09,0-0.13
		c-0.03-0.04-0.07-0.05-0.13-0.05h-9.97c-0.29,0-0.43-0.12-0.43-0.36v-1.51c0-0.24,0.14-0.36,0.43-0.36h12.96
		c0.29,0,0.43,0.12,0.43,0.36v1.66c0,0.1-0.04,0.24-0.13,0.43l-10.35,20.34c-0.03,0.05-0.03,0.09,0,0.13
		c0.03,0.04,0.07,0.05,0.13,0.05h9.92c0.29,0,0.43,0.12,0.43,0.36v1.51c0,0.24-0.14,0.36-0.43,0.36h-12.96
		C280.29,141.3,280.15,141.18,280.15,140.94z"/>
	<path class="st2" d="M313.26,116.1h2.14c0.28,0,0.43,0.12,0.43,0.36v24.48c0,0.24-0.14,0.36-0.43,0.36h-2.52
		c-0.23,0-0.38-0.1-0.47-0.29l-8.34-18.61c-0.03-0.07-0.07-0.1-0.13-0.09c-0.06,0.01-0.09,0.05-0.09,0.13l0.04,18.5
		c0,0.24-0.14,0.36-0.43,0.36h-2.18c-0.29,0-0.43-0.12-0.43-0.36v-24.48c0-0.24,0.14-0.36,0.43-0.36h2.48c0.23,0,0.38,0.1,0.47,0.29
		l8.38,18.65c0.03,0.07,0.07,0.1,0.13,0.09c0.06-0.01,0.08-0.05,0.08-0.13v-18.54C312.83,116.22,312.97,116.1,313.26,116.1z"/>
	<path class="st2" d="M324.08,140.94v-24.48c0-0.24,0.14-0.36,0.43-0.36h2.18c0.29,0,0.43,0.12,0.43,0.36v24.48
		c0,0.24-0.14,0.36-0.43,0.36h-2.18C324.23,141.3,324.08,141.18,324.08,140.94z"/>
	<path class="st2" d="M346.24,140.97l-1.07-4.46c0-0.05-0.02-0.08-0.06-0.11c-0.04-0.02-0.09-0.04-0.15-0.04h-7.74
		c-0.06,0-0.11,0.01-0.15,0.04c-0.04,0.02-0.06,0.06-0.06,0.11l-1.07,4.46c-0.03,0.22-0.19,0.32-0.47,0.32h-2.18
		c-0.14,0-0.25-0.04-0.32-0.11c-0.07-0.07-0.09-0.17-0.06-0.29l6.42-24.48c0.06-0.22,0.21-0.32,0.47-0.32h2.57
		c0.29,0,0.44,0.11,0.47,0.32l6.5,24.48v0.07c0,0.22-0.13,0.32-0.38,0.32h-2.22C346.46,141.3,346.3,141.19,346.24,140.97z
		 M337.69,134.28h6.76c0.08,0,0.13-0.05,0.13-0.14l-3.42-14.15c-0.03-0.07-0.06-0.11-0.09-0.11s-0.06,0.04-0.08,0.11l-3.42,14.15
		C337.56,134.23,337.6,134.28,337.69,134.28z"/>
	<path class="st2" d="M355.1,140.94v-24.48c0-0.24,0.14-0.36,0.43-0.36h2.18c0.29,0,0.43,0.12,0.43,0.36v11.66
		c0,0.07,0.03,0.12,0.09,0.14c0.06,0.02,0.1,0,0.13-0.07l8.26-11.84c0.14-0.17,0.31-0.25,0.51-0.25h2.4c0.17,0,0.29,0.04,0.34,0.13
		c0.06,0.08,0.04,0.19-0.04,0.31l-6.67,9.76c-0.06,0.1-0.07,0.17-0.04,0.22l7.36,14.36l0.04,0.14c0,0.19-0.13,0.29-0.39,0.29h-2.44
		c-0.23,0-0.39-0.1-0.47-0.29l-6.16-12.24c-0.03-0.1-0.1-0.1-0.21,0l-2.65,3.46c-0.03,0.02-0.04,0.08-0.04,0.18v8.53
		c0,0.24-0.14,0.36-0.43,0.36h-2.18C355.24,141.3,355.1,141.18,355.1,140.94z"/>
</g>
<g>
	<g>
		<g>
			<g>
				<g>
					<path class="st2" d="M371.39,171.51c0.53,0.01,0.31-0.4,0.39-0.48C370.91,171.18,371.42,171.62,371.39,171.51z"/>
					<polygon class="st2" points="362.79,172.96 362.94,172.78 361.68,173.27 					"/>
					<path class="st2" d="M354.7,173.4c0.8,0.67,2.93-0.28,4.38-0.1l0.25,0.15l0.62-0.61C358.2,173.02,355.95,173.53,354.7,173.4z"
						/>
					<path class="st2" d="M350.31,172.09c0.28,0.26-0.92,0.29,1.01,0.03c-0.1-0.03-0.13-0.04-0.19-0.06
						C350.96,172.08,350.72,172.09,350.31,172.09z"/>
					<path class="st2" d="M351.13,172.06C351.98,172,350.56,171.86,351.13,172.06L351.13,172.06z"/>
					<path class="st2" d="M347.21,172.43l1.11-0.31c-0.24-0.15-1.24-0.14-0.88-0.28C346.3,172.04,346.54,172.19,347.21,172.43z"/>
					<path class="st2" d="M346.17,173l0.58-0.13C346.64,172.8,346.49,172.79,346.17,173z"/>
					<path class="st2" d="M347.97,172.58l-1.22,0.29c0.17,0.11,0.2,0.34,0.56-0.11C347.22,172.97,347.45,172.76,347.97,172.58z"/>
					<path class="st2" d="M348.67,172.65c0.64,0.12,1.46,0.18,0.34,0.48C351.16,172.93,350.81,172.44,348.67,172.65z"/>
					<path class="st2" d="M354.33,174.16l0.85,0.16l0.72-0.28C355.54,174.18,354.27,173.94,354.33,174.16z"/>
					<path class="st2" d="M340.2,172.41c-0.06,0.15,0.4,0.39,0.49,0.58l0.82-0.21C341.08,172.69,340.27,172.63,340.2,172.41z"/>
					<path class="st2" d="M340.69,172.99l-1.23,0.32C340.58,173.29,340.77,173.15,340.69,172.99z"/>
					<polygon class="st2" points="346.01,173.8 348.02,173.15 345.62,173.83 					"/>
					<polygon class="st2" points="335.47,172.61 336.16,172.23 334.93,172.82 					"/>
					<path class="st2" d="M332.34,172.82c0.51-0.31-0.73-0.46-0.19-0.66c-0.85,0.09-1.57,0.37-2.21,0.62
						C330.62,172.63,331.36,172.63,332.34,172.82z"/>
					<path class="st2" d="M328.84,173.15c0.34-0.08,0.7-0.22,1.09-0.37C329.56,172.86,329.2,172.97,328.84,173.15z"/>
					<path class="st2" d="M337.35,173.33c-0.1-0.09-0.3-0.32-1-0.39l0.51,0.4C337.01,173.34,337.18,173.34,337.35,173.33z"/>
					<path class="st2" d="M336.88,173.36l-0.02-0.01c-0.53,0.01-0.9,0.02-1.05,0.03C335.94,173.37,336.27,173.37,336.88,173.36z"/>
					<path class="st2" d="M337.47,173.33c-0.05,0-0.08,0-0.12,0C337.4,173.37,337.43,173.38,337.47,173.33z"/>
					<path class="st2" d="M342.74,173.58c-0.72,0.28-2.22,0.61-0.73,0.9C342.52,174.16,341.66,174,342.74,173.58z"/>
					<path class="st2" d="M338.11,173.83l1.32,0.04c-0.03-0.11-0.28-0.26,0.08-0.4L338.11,173.83z"/>
					<polygon class="st2" points="337.47,174 338.11,173.83 337.62,173.82 					"/>
					<path class="st2" d="M331.12,173.46c-0.56,0.21-1.18,0.25-1.88,0.31c0.76,0.05,1.54,0.07,2.28,0.04
						C331.61,173.66,331.92,173.41,331.12,173.46z"/>
					<path class="st2" d="M333.92,173.45c-0.04,0.01-0.09,0.02-0.13,0.03C333.87,173.51,333.94,173.52,333.92,173.45z"/>
					<polygon class="st2" points="322.31,174.04 322.43,174.11 322.45,174.04 					"/>
					<path class="st2" d="M331.64,173.88c0.57,0.06,0.9-0.06,1.22-0.21c-0.42,0.06-0.87,0.11-1.35,0.14
						C331.46,173.87,331.46,173.91,331.64,173.88z"/>
					<path class="st2" d="M326.92,173.43c0.3,0.08,0.64,0.14,0.99,0.2C327.62,173.5,327.02,173.31,326.92,173.43z"/>
					<path class="st2" d="M333.6,173.37c0.03-0.01,0.05-0.01,0.08-0.02C333.49,173.26,333.52,173.31,333.6,173.37z"/>
					<path class="st2" d="M333.6,173.37c-0.29,0.08-0.51,0.19-0.74,0.3c0.34-0.05,0.66-0.11,0.93-0.19
						C333.72,173.45,333.65,173.41,333.6,173.37z"/>
					<path class="st2" d="M320.31,176.86c0.09-0.4,1.56-0.82,2.87-0.44c1.26-0.35,0.38-1.62-0.75-2.3
						c-0.03,0.17-0.03,0.33-1.32,0.62c0.46,0.2,2.91,0.39,1.82,0.79c-1.72,0.27-1.42-0.08-2.26-0.26c0.73,0.47-2.17,0.79-1.77,1.5
						l1.51-0.3C320.43,176.57,319.89,176.77,320.31,176.86z"/>
					<path class="st2" d="M324.91,174.05l0.53-0.07c-0.61-0.04-1.06-0.19-1.87-0.46c-0.88,0.23-1.06,0.38-1.12,0.52l2.64-0.05
						L324.91,174.05z"/>
					<path class="st2" d="M327.85,173.89c-0.4,0.45-1.68,0.68-0.87,1.12c1.57-0.09,1.09-0.4,2.02-0.63
						c-2.53,0.21,0.72-0.27-1.12-0.44c0.5-0.09,0.94-0.13,1.36-0.17c-0.46-0.03-0.9-0.08-1.32-0.14c0.02,0.01,0.04,0.02,0.06,0.02
						l0.01,0l0,0.01c0.11,0.05,0.15,0.08,0.02,0.05c-0.01,0.01-0.04,0.01-0.05,0.01C327.94,173.78,327.89,173.83,327.85,173.89
						c-0.74-0.06-0.12-0.11,0.11-0.17c0.01-0.02,0.03-0.04,0.03-0.07l-0.01-0.01l-2.53,0.34
						C325.98,174.02,326.65,173.98,327.85,173.89z"/>
					<path class="st2" d="M340.7,175.47c-0.08-0.03-0.08-0.07-0.09-0.1C340.45,175.44,340.39,175.48,340.7,175.47z"/>
					<path class="st2" d="M339.64,175.26c0.18-0.07,0.33-0.25,0.93-0.23c0.53,0.1,0.01,0.21,0.04,0.35
						c0.36-0.13,1.25-0.37,0.11-0.52l-0.18,0.07c-1.03-0.1-2.37-0.58-2.2-0.64C338.66,174.65,338.94,174.91,339.64,175.26z"/>
					<path class="st2" d="M333.67,174.7l-2.11,0.31l1.09,0.32l-0.06-0.22C333.8,175.14,333.53,174.88,333.67,174.7z"/>
					<polygon class="st2" points="322.06,173.83 322.33,173.37 321.13,174.06 					"/>
					<polygon class="st2" points="319.32,173.98 319.41,173.59 318.69,173.85 					"/>
					<path class="st2" d="M164.74,177.8l-0.64,0.09C164.41,177.87,164.6,177.83,164.74,177.8z"/>
					<path class="st2" d="M169.35,177.86l0.11-0.2C169.24,177.77,169.16,177.85,169.35,177.86z"/>
					<path class="st2" d="M251.92,173.55c-0.88-0.42-1.85-1.04-1.77-0.6l0.25,0.45C251.04,173.36,251.52,173.44,251.92,173.55z"/>
					<path class="st2" d="M205.72,170.99c0.08,0.05,0.16,0.11,0.24,0.17c0.24-0.12,0.46-0.22,0.67-0.32
						C206.35,170.89,206.04,170.94,205.72,170.99z"/>
					<path class="st2" d="M204.85,172.69l-1.12-0.42C203.98,172.4,204.34,172.53,204.85,172.69z"/>
					<path class="st2" d="M140.1,177.3l-0.74,0.42C140.5,177.75,140.01,177.52,140.1,177.3z"/>
					<path class="st2" d="M291.19,174.72c-0.78-0.16-1.4-0.24-1.95-0.26C290.18,174.71,290.94,175.08,291.19,174.72z"/>
					<path class="st2" d="M166.61,173.23c-0.38,0.07-0.54,0.16-0.53,0.26C166.47,173.42,166.69,173.34,166.61,173.23z"/>
					<path class="st2" d="M286.98,174.45c0.14,0.04,0.27,0.07,0.41,0.1c0.57-0.07,1.14-0.13,1.84-0.1
						C288.54,174.27,287.75,174.15,286.98,174.45z"/>
					<path class="st2" d="M51,177.71c-0.07-0.02-0.14-0.02-0.2-0.04C50.78,177.73,50.87,177.73,51,177.71z"/>
					<path class="st2" d="M24.77,174.87c0.25-0.05,0.67-0.08,1.07-0.11C25.64,174.75,25.32,174.77,24.77,174.87z"/>
					<path class="st2" d="M308.26,174.12C308.84,174.07,308.35,174.07,308.26,174.12L308.26,174.12z"/>
					<path class="st2" d="M311.14,175.77c-0.12,0.05-0.22,0.12-0.23,0.22C310.96,175.88,311.04,175.81,311.14,175.77z"/>
					<path class="st2" d="M281.16,177.12c-0.02,0-0.03,0-0.05,0C281.28,177.21,281.25,177.19,281.16,177.12z"/>
					<path class="st2" d="M309.14,174.29c-0.22-0.05-0.47-0.09-0.75-0.11C308.51,174.21,308.74,174.25,309.14,174.29z"/>
					<path class="st2" d="M309.02,174.09c0.2,0.01,0.36,0.02,0.51,0.03C309.6,174.05,309.53,174,309.02,174.09z"/>
					<path class="st2" d="M307.45,174.16c0.33-0.01,0.64,0,0.94,0.02c-0.12-0.03-0.16-0.05-0.13-0.07
						C308.09,174.12,307.85,174.14,307.45,174.16z"/>
					<path class="st2" d="M98.73,175.27c-0.04-0.01-0.08-0.02-0.13-0.04C98.02,175.42,98.28,175.39,98.73,175.27z"/>
					<path class="st2" d="M236.42,176.87c0.03,0,0.04-0.01,0.07-0.01c-0.03-0.01-0.06-0.02-0.08-0.02L236.42,176.87z"/>
					<path class="st2" d="M234.29,176.99c0.95-0.45,1.45-0.34,2.11-0.16l-0.58-1.31L234.29,176.99z"/>
					<path class="st2" d="M153.91,177.48l1.45,0.45c-1.8,0.57-3.07,0.29-1.72,0.9c0.27-1.35,5.71,0.1,5.99-1.24l0.96,0.33
						c-0.28-0.02-0.33,0.05-0.6,0.03c1.87,0.73,1.45-0.91,3.9-0.64c0.85,0.13,1.45,0.34,0.86,0.49l1.93-0.3
						c0.56,0.03,0.42,0.27-0.14,0.23c0.98-0.02,1.96-0.06,2.95-0.11l-0.02,0.04c0.42-0.21,1.36-0.57,1.82-0.73
						c0.76,0.17-0.37,0.16-0.17,0.32l1.62-0.4c0.69,0.31-0.65,0.74-1.79,0.72c1.6,1.28,1.34-0.35,4.73,0.14l-1.55,0.31
						c1.08,0.68,2.29,0.31,4.16,0.52c-0.49-0.16-3.73-0.76-1.96-1.31c0.52,0.05,1.19,0.01,2.12-0.4c0.08,0.47,1.02,0.22,2.18-0.05
						l0.04,0.64c1.25-0.44,1.06-0.75,1.74-1.19c1.39-0.27,1.79,0.14,2.22,0.46c2.21-0.47-1.7-0.38,0.84-1.16
						c1.86-0.24,3.02-0.84,5.01-1.75c1.27-0.1-0.12,0.43,0.36,0.5l0.95-0.76c0.27-0.05,0.22,0.12,0.19,0.21
						c0.86-0.4-0.07-0.64,1.33-1.13c0.12-0.37,0.92-0.29,1.86-0.19c0.95,0.08,2.03,0.2,2.87-0.27c0.44,0.15-0.18,0.41-0.03,0.64
						c1.16-0.34,1.67-0.44,2.13-0.55c0.46-0.11,0.87-0.25,1.91-0.54c0.57,0.18,1.13,0.37,1.69,0.57c-1.22-0.6,0.45-1.03,1.98-1.28
						c-0.43-0.29-0.8-0.55-1.06-0.67c0.8-0.02,1.59-0.02,2.39-0.01c0.27,0.15,0,0.33-0.42,0.53c0.17-0.03,0.32-0.06,0.45-0.09
						c0.8,0.36,0.31,0.66-0.34,0.92c-0.26-0.17-0.52-0.34-0.78-0.51c-0.63,0.3-1.21,0.66-1.14,1.05c0.16-0.06,0.45-0.08,0.77-0.07
						c-0.16,0.08-0.27,0.16-0.21,0.24c0.07,0.08,0.32-0.03,0.72-0.14l0.42,0.78l0.17-0.26l2.95,0.92c2.3-0.39,4.35-1.15,7.85-0.94
						c-0.93,0.39-0.3,0.82-0.44,1.43c-0.85-0.79-2.72-0.12-4.5-0.51c0.93,0.21,0.68,0.47,0.42,0.53l3.29-0.12
						c-0.14,0.49,0.63,0.48,1.44,0.81c-0.5-1.08,2.48-0.3,3.83-0.47c0.04,0.34-0.32,0.65-1.91,0.37c1.66,0.96,2.43-0.89,4.07-0.05
						c-0.39-0.04-0.59-0.12-0.77,0.04c0.95-0.19,3.14,0.32,2.58,0.55l-0.39-0.04c1.29,0.21,3.25,0.46,4.96,0.53
						c1.71,0.05,3.15-0.06,3.39-0.46c0.02,0.11-0.44,0.99-0.62,1.14l4.89-2.4c-0.47,0.69,0.93,2.57-1.25,2.77
						c0.61,0.16,1.36,0.36,2.69,0.23c-0.41-0.14-0.96-1.15-0.38-1.16c1.51,0.97,1.06,0.53,2.95,1.38c-0.62-0.2,0.18-1.29,1.17-1.18
						c-0.17,0.16-0.01,1.13-0.38,1.22l2.57-0.93c-0.63,0.16-0.18,0.94,0.35,1.3c-0.24-0.24,2.15,0.18,2.82,0.12l-1.04-0.34
						c2.8,0.39,2.88-1.37,5.65-1.16c-0.35,0.21-0.92,1.38,0.49,1.6c0.69-0.54,3.03-2.61,5.5-2.92l0.46,0.35
						c0.63-0.09,1.27-0.19,1.9-0.29c-1.21,0.84-4.59,2.45-6.44,3.07c1.04,0.32,0.27,0.4,1.85,0.46c0.54,0.34-0.88,0.42-1.35,0.41
						l3.67,0.4c-0.13-0.67,2.84-0.54,2.72-1.12c-1.34,0.19-2.68,0.35-4.02,0.51c-0.13-0.68,2.39-1.76,4.98-1.57
						c0.65,0.29-0.54,1.18-0.5,1.4c0.35-0.22,2.49-0.35,2.72-0.18l-1.12,0.32c1.44,0.3,2.39-0.81,4.11-0.1
						c0.6,0.06,1.77,0.93,1.88,0.54c-0.96-0.8-1.08-3.18-0.41-3.73c0.21,0.07,3.12,0.81,3.79,1.2c0.97,0.62-1.51,1.4-0.69,1.94
						c0.04-0.18,0.59-0.4,0.82-0.47c0.63,0.17-0.27,0.56,1.1,0.51c0.24-0.68,2.78,0.11,0.66-0.56c1.34-0.17,1.42,0.17,2.99,0.17
						c-0.49-0.45,1.43-1.47,2.77-1.65c-0.08,0.17,0.22,0.4,0.36,0.5c2.74,0.07,4.21,0.39,6.77,0.4c0.24,0.17,1.47,0.37,0.94,0.66
						c0.37-0.12,0.71-0.35,1.49-0.36c1.53,0.59-1.76,0.09-0.59,0.8c0.1-0.39,2.04-0.55,3.16-0.81c-0.35-0.61-2.6-0.09-3.72,0.15
						c-0.01-0.84,1.95-1.72,4.61-2.14c2.12-0.23,0.92,0.54,1.29,0.41c3.99,0.1,3.37-1.49,6.69-0.94c1.32,0.51,0.08,1.07,0.38,1.45
						c-1.73,0.25-2.66-0.3-3.83-0.27l1.45,0.24c-0.55,0.18-1.7,0.33-2.33,0.18c1.11,0.49,6.74,0,9.82,0.37
						c0.54-0.19,1.48-0.4,1.03-0.61l-0.97,0.1c-0.9-0.41,1.82-0.64,0.58-0.81c1.3-0.34,2.75-0.83,4.59-0.65l0.36,0.6
						c-0.04-0.18-1.21-0.33-1.72-0.12c0.76-0.3,2.84,0.74,3.65-0.09l-1.3-0.38c1.3-0.35,2.9-1.05,4.53-0.91
						c-0.76-0.58-0.37,0.08-1.55-0.59c1.03,0.85-4.16,0.09-2.52,0.97c-1.21-0.79-2.06-0.28-3.63-0.94c0.05,0.2,0.56,0.37-0.81,0.3
						c-0.06,0.06-0.2,0.14-0.29,0.18c-0.04-0.01-0.06-0.01-0.09-0.01c0.03,0.01,0.05,0.01,0.08,0.02c-0.06,0.03-0.06,0.04,0.03,0.01
						c0.33,0.08,0.59,0.18,0.7,0.29c-0.67,0.48-2.84,0.51-3.56,0.77c-0.81-0.08,0.33-0.24-0.11-0.45l-1.09,0.38
						c-0.12-0.45-2.17-0.7-0.26-1l-1.72,0.02c-1.01-0.23-2.4-0.29-3.26-0.1c-0.81-0.09-2.04,0.52-1.34,0.16l-2.69,0.3l-0.03-0.11
						c-2.65-0.03-5.46,0.81-8.5-0.03c-0.89,0.11-1.82,0.24-3.31,0.11l-0.29-0.39c-1.15,0.13-3.44-0.39-3.93-0.01
						c-1.22-1.07-5.55-0.33-7.56-0.56l-0.09,0.51c-1.39-0.05-2.72,0.05-4.45,0.19l0.09,0.45c-1.5,0.31-3.81-0.46-6.16-0.49
						c0.17-0.17,0.76-0.1,1.18,0.02c-2.76-1.09-5.95,0.45-8.45-0.41c-0.64,0.13-1.1,0.05-1.54-0.09c0.06,0,0.11,0,0.16-0.01
						c-0.06-0.01-0.16-0.02-0.26-0.02c-0.27-0.09-0.56-0.2-0.86-0.29c0.26,0.12,0.51,0.23,0.73,0.28c-0.49-0.02-1.23,0-1.97,0.07
						l-0.28-0.5c-0.06,0-0.11,0-0.17,0c-0.7-0.23-0.59,0.18-0.23,0.57c-0.37,0.05-0.71,0.12-0.98,0.22
						c-0.53-0.82-1.92,0.12-2.65-0.77c-0.52,0.37-3.67,0.03-4.12,0.85c-0.02-0.11-0.23-0.18,0.17-0.16c-0.8-0.16-1.6-0.31-2.35-0.13
						l-0.29-0.64l-1.84,0.65c-1.04-0.48-1.46-0.73-0.36-1.1c-2.63,0.47-2.11,0.07-4.36,0.57l0.15-0.38
						c-0.78-0.06-2.09,0.35-2.52-0.03c-0.84-0.44-2.98-0.75-5.48-1.07c-2.49-0.33-5.33-0.65-7.5-1.35c0.7,1.28-1.99-0.82-2.3,0.05
						c-0.22-0.31-0.82-0.56-0.06-0.69c-2.31-0.07-3.34-0.93-5.02-0.41c-0.22-0.31,0.55-0.33,0.34-0.52
						c-0.19,0.03-0.76,0.13-0.97-0.07c-0.21-0.2,0.37-0.17,0.75-0.24c-2.32-0.32-2.71,0.48-3,1.24c-1.13-0.56-1.75-0.59-2.68-0.18
						c-0.39-0.31-1.06-0.67,0.44-0.58c-0.41-0.07-1.68-0.33-2.9-0.43c-1.21-0.1-2.35-0.03-2.4,0.29c-0.27-0.17-1.21-0.03-1.43,0.06
						c-1.93,0.08-2.11,0.05-3.96,0.39l0.53,0.02c-0.61,0.88-1.5,0.41-2.94,0.82l0.02-0.09c-3.45,0.23-1.38,0.58-4.76,0.8l0.3,0.42
						c-0.03,1.07-2.99,0.19-4.73,1.04l0.73,0.09c-0.93,0.62-3.15-0.67-4.13-0.61c-0.23-0.05,0.31-0.2,0.59-0.34
						c-2.68-0.09-0.2,0.7-2.12,1.19c-0.41-0.28,0.32-0.91-0.98-0.78c-0.34-0.09-1.24,0.31-2.32,0.65c-1.08,0.34-2.33,0.6-3.26,0.31
						c0.41,0.24,0.83,0.48-0.09,0.72c-1.44,0.16-3.87-0.9-5.18-0.11c-0.18-0.07-0.25-0.14-0.26-0.21c-1.1,0.2-3.6,0.25-4.29,0.67
						c-0.95-1.7-6.98,0.49-6.89-1.02l-3.45-0.06l0.1-0.15c-2.2-0.2-2.99,0.14-3.78,0.48c-0.5-0.12-0.13-0.25-0.08-0.33
						c-3.2-0.42-3.53-0.36-6.25,0.3l-0.26-0.51c-0.74,0.25-4.63-0.91-7.8-0.41c0.03-0.06,0.1-0.15,0.35-0.21
						c-3.56,0.48-8.48-1.55-9.81,0.23l-2.35,0.41c3.03,0.18-0.46,0.78,0.78,1.09c-1.19,0.09-3.07-0.58-1.61-0.66l0.23,0.09
						c0.55-0.93-3.76-0.38-3.67-1.02c-5.96-0.02-11.78-0.56-17.37-0.56l0.65,0.73l-1.95-0.03c-0.51-0.17-0.69-0.57,0.7-0.54
						c-0.73-0.41-2.33,0.36-2.37,0.52c-2.72-0.28,1.06-0.86,0.22-0.87l-1.13,0.06l0.26,0.08c-0.92,0.31-1,0.63-2.67,0.61
						c-1.06-0.13-0.55-0.44-0.96-0.47c0-0.05-0.14-0.07-0.64-0.01l-2.46-0.03l0.99,0.57c-1.08,0.3-2.31,0-1.17,0.64
						c-1.68-1.01-9.16-0.19-10.19-0.49c-1.51,0.45-3.02,0.49-4.88,0.49c0.47,0.11,0.76,0.75-0.85,0.71
						c0.55-1.35-2.96-0.51-4.29-1.42c1.18,0.6-4.56,0.32-2.71,1.16c-1.34-0.06-0.1-0.5-1.13-0.78c-3.17,0.62-7.05-0.07-10.98,0.27
						c-0.05,0.18,0.62,0.42-0.22,0.72l-2.12-0.79c-0.77,0.13-0.67,1.05-2.12,0.51c0.21,0.14,0.52,0.35,0,0.43
						c-7.77-0.5-15.72,1.56-23.66,0.48c1.09,0.27,0.38,0.35-0.43,0.42c0.53,0.04,0.02,0.43,0.14,0.66l-3.32-0.42
						c-0.55,0.7-3.51,0.3-3.81,0.96l1.03-0.19c-1.32,0.85,2.05,1.51,1.92,2.48c1.48-0.96,4.15,0.94,6.6-0.43
						c0.57,0.16-0.46,0.34-0.14,0.54c0.61-0.45,1.38-0.59,2.83-0.5l-0.16,0.11c4.03-0.37,5.78-0.06,10.33-0.05l-0.36-0.45
						c0.98,0.01,1.19,0.14,1.65,0.24c1.08-0.78-2.74,0.12-1.76-0.73c1.34,0.87,6.87-0.36,7.8,0.7c1.5-0.07-0.47-0.53,1.03-0.59
						l0.41,0.28l0.36-0.4c0.99,0.01,1.5,0.36,1.55,0.61c-0.24-0.02-0.67,0.1-0.93,0.14c1.29,0.28,3.59-0.28,4.03-0.19l-1.45-0.12
						c4.08-0.46,9.09-0.28,13.02-1l-0.31-0.21c3.01-0.51,2.43,0.15,5.74-0.13l-0.12,0.06c0.66-0.24,1.54-0.38,2.45-0.38
						c-0.83,0.28,1.59,0.47,0.5,0.79c3.26-0.53,1.61-0.39,3.75-1.28l0.51,0.36c0.73-0.35,0.79-0.53,2.44-0.66
						c-1.35,0.34,1.07,0.54-0.44,0.99c3.49,0.74,5.15-0.92,6.76,0.24c1.58-1.05-3.02-0.52-2.13-0.75c-0.75-0.32,1.31-0.8,2.4-0.71
						c1.11,0.01,1.91,1.29,4.7,1.24c-0.28,0-0.3,0.08-0.57,0.08c1.05,0.25,2.04-0.38,3.33,0.03c0.71-0.63,1.66,0.02,1.87-0.77
						l-2.56,0.2c1.45-0.23,2.81-1.15,5.21-0.72c-0.19,0.16-0.9,0.37-1.39,0.49c0.7,0.23,1.35-0.16,2.07,0.08
						c-0.2,0.79-3.11,0.18-4.67,0.8c0.75,0.33,2.94-0.59,2.16,0.27c1.12-1.1,2.75,0.13,4.64-0.71l-0.12,0.48
						c0.3-0.08,0.92-0.3,1.47-0.29l-1,0.62c1.53-0.54,2.95,0.45,4.42,0.18c-3.07,0-0.69-0.57-1.99-0.93
						c3.8-0.62,2.18,1.25,6.42,1.04c-0.57,0.06-2.16-0.29-1.26-0.51c0.81,0.1,1.87,0.29,2.37,0.54c2.81-0.08-0.43-0.49,0.77-0.78
						c0.95,0.59,1.38-0.22,2.62-0.39l0,0.48c3.2,0.35,0.86-1,3.74-0.59l-1.23,0.66l1.51-0.16l-0.32,0.55
						c1.64-0.39,2.15-0.28,3.75-0.09c-0.37-0.35,0.22-0.87,1.64-0.86c0.96,0.31-0.55,0.45,1.46,0.42c-0.46,0.29-0.96,0.66-1.83,0.2
						c-0.09,0.16-0.45,0.29-0.55,0.45c1.04,0.35,2.62,0.12,3.35,0.13c-0.28-0.02-0.61-0.06-0.79-0.13l2.93-0.61
						c0.46,0.19,0.09,0.33-0.28,0.46c0.59-0.04,1.01-0.26,1.88-0.28c-0.23,0.39-0.19,0.79-1.42,0.95l2.79-0.37
						c0.18,0.18,1.41,0.51,1.05,0.64c1.53,0.27,3.8-0.66,5.83-0.3c0.11-0.07,0.32-0.14,0.76-0.18c1.92,0.15,3.6,0.69,5.89,0.24
						l1.26,0.75c1.79-0.1-1.71-0.95,1.26-1.11c2.11-0.14,0.76,0.63,1.49,0.86c1.06-0.31,2.9-0.95,4.81-0.3
						C155,177.58,154.51,177.45,153.91,177.48z M176.26,177.23c-0.43,0.16-1.28,0.55-1.63,0.29
						C175.09,176.93,175.49,177.17,176.26,177.23z M208.77,172.4c-0.34,0.11-0.81-0.05-1.32-0.31
						C207.85,172.11,208.3,172.2,208.77,172.4z M301.88,174.64c-0.02,0.01-0.03,0.01-0.05,0.02
						C300.88,174.5,301.22,174.57,301.88,174.64z M303.86,174.81c0.2-0.07,0.18-0.14,0.1-0.2c-0.14,0.13-0.58,0.14-1.08,0.12
						C303.01,174.85,303.27,174.93,303.86,174.81z M92.46,172.08l0.39,0.12C91.98,172.35,92.22,172.22,92.46,172.08z"/>
					<path class="st2" d="M204.96,172.49c-0.11-0.1-0.13-0.19-0.14-0.28C204.65,172.27,204.63,172.36,204.96,172.49z"/>
					<path class="st2" d="M140.24,177.22l-0.07-0.01c-0.04,0.03-0.06,0.06-0.07,0.09L140.24,177.22z"/>
					<path class="st2" d="M273.23,178.89c-0.41-0.08-0.63-0.17-0.78-0.26C272.43,178.74,272.61,178.84,273.23,178.89z"/>
					<path class="st2" d="M314.28,173.73l-1.26,0.17c0.61-0.04,0.83,0.06,1.14,0.12C314.13,173.91,313.89,173.76,314.28,173.73z"/>
					<path class="st2" d="M325.36,176.34c0.18-0.07,0.39-0.02,0.57-0.09l-0.06-0.22C325.08,176.07,324.54,176.28,325.36,176.34z"/>
					<path class="st2" d="M315.5,175.3c0.11,0.4,0.9,0.24,1.78,0.14c-0.05,0-0.1,0.01-0.16,0
						C317.37,174.87,316.44,175.08,315.5,175.3z"/>
					<path class="st2" d="M317.49,175.42c0.27-0.03,0.55-0.05,0.82-0.04C318.41,175.15,317.98,175.34,317.49,175.42z"/>
					<path class="st2" d="M306.35,174.49c0.42,0.1,0.25-0.52,0.49-0.36C307.3,173.6,304.06,174.81,306.35,174.49z"/>
					<polygon class="st2" points="316.26,176.61 315.93,176.12 315.44,176.54 					"/>
					<path class="st2" d="M309.25,176.45l1.42,0.11c-0.02-0.08,0.16-0.14,0.38-0.18C310.17,176.38,309.21,176.3,309.25,176.45z"/>
					<path class="st2" d="M311.05,176.38c0.45,0,0.89-0.03,1.14-0.12C311.94,176.27,311.41,176.31,311.05,176.38z"/>
					<polygon class="st2" points="314.33,176.83 313.91,176.73 312.9,176.73 					"/>
					<path class="st2" d="M294.02,176.6l-1.55,0.16c-0.16,0.17,0.27,0.27,0.84,0.2C293.69,176.83,294.26,176.76,294.02,176.6z"/>
					<path class="st2" d="M298.71,177.92c-0.42-0.1-0.45-0.21-0.69-0.37l-0.04,0.62L298.71,177.92z"/>
					<path class="st2" d="M294.2,178.11c-0.15,0.17-2.25,0.52-0.28,0.46C294.07,178.4,295.62,178.24,294.2,178.11z"/>
					<polygon class="st2" points="270.88,177.14 271.27,177.14 271.24,176.12 					"/>
					<path class="st2" d="M250.19,178.66c1.82,0.34,0.48-0.6,2.12-0.21c0.45-0.22-1.34-0.32-0.89-0.51
						C250.3,178.14,249.72,177.96,250.19,178.66z"/>
					<path class="st2" d="M251.42,177.94c0.18-0.03,0.37-0.07,0.58-0.12C251.67,177.87,251.52,177.91,251.42,177.94z"/>
					<polygon class="st2" points="20.41,174.65 19.22,174.52 20.01,174.81 					"/>
					<path class="st2" d="M18.21,175.56l-0.33-0.63l-0.66,0.64C17.48,175.53,18,175.43,18.21,175.56z"/>
					<path class="st2" d="M179.88,178.03l0.07-0.17c-0.22-0.13-0.51-0.1-1.1-0.02L179.88,178.03z"/>
					<polygon class="st2" points="163.22,178.39 163.49,178.41 162.99,177.8 					"/>
					<path class="st2" d="M149.77,178.56c0.54,0.05,1.19-0.06,1.74-0.01C150.31,178.61,149.65,177.83,149.77,178.56z"/>
				</g>
			</g>
		</g>
	</g>
</g>
<g>
	<path class="st2" d="M122.78,212.2c0.78,0.35,1.37,0.85,1.79,1.5c0.42,0.65,0.63,1.41,0.63,2.29c0,0.87-0.21,1.63-0.63,2.29
		c-0.42,0.65-1.02,1.15-1.79,1.5c-0.78,0.35-1.69,0.52-2.75,0.52h-2.4v3.28h-2.75v-11.9h5.15C121.08,211.67,122,211.85,122.78,212.2
		z M121.76,217.51c0.43-0.36,0.65-0.86,0.65-1.52c0-0.67-0.22-1.18-0.65-1.54s-1.06-0.54-1.89-0.54h-2.24v4.13h2.24
		C120.7,218.05,121.33,217.87,121.76,217.51z"/>
	<path class="st2" d="M133.26,223.4c-0.88-0.25-1.58-0.59-2.12-0.99l0.94-2.07c0.51,0.37,1.12,0.67,1.82,0.9
		c0.7,0.23,1.41,0.34,2.11,0.34c0.78,0,1.36-0.12,1.73-0.35c0.37-0.23,0.56-0.54,0.56-0.93c0-0.28-0.11-0.52-0.33-0.71
		c-0.22-0.19-0.5-0.34-0.85-0.45c-0.35-0.11-0.81-0.24-1.4-0.37c-0.91-0.22-1.65-0.43-2.23-0.65c-0.58-0.22-1.07-0.56-1.49-1.04
		s-0.62-1.11-0.62-1.9c0-0.69,0.19-1.32,0.56-1.88s0.94-1.01,1.69-1.33c0.75-0.33,1.67-0.49,2.76-0.49c0.76,0,1.5,0.09,2.23,0.27
		c0.73,0.18,1.36,0.44,1.9,0.78l-0.85,2.09c-1.1-0.62-2.2-0.94-3.3-0.94c-0.77,0-1.34,0.12-1.71,0.37
		c-0.37,0.25-0.55,0.58-0.55,0.99c0,0.41,0.21,0.71,0.64,0.91c0.43,0.2,1.07,0.39,1.95,0.59c0.91,0.22,1.65,0.43,2.23,0.65
		c0.58,0.22,1.07,0.56,1.49,1.02c0.41,0.46,0.62,1.09,0.62,1.89c0,0.68-0.19,1.3-0.57,1.86c-0.38,0.56-0.95,1.01-1.71,1.33
		s-1.68,0.49-2.77,0.49C135.05,223.78,134.14,223.65,133.26,223.4z"/>
	<path class="st2" d="M153.15,219.36v4.22h-2.75v-4.25l-4.61-7.65h2.92l3.18,5.29l3.18-5.29h2.7L153.15,219.36z"/>
	<path class="st2" d="M165.58,222.99c-0.98-0.53-1.75-1.26-2.31-2.19c-0.56-0.94-0.84-1.99-0.84-3.17c0-1.18,0.28-2.24,0.84-3.17
		s1.33-1.67,2.31-2.19s2.08-0.79,3.31-0.79c1.03,0,1.96,0.18,2.8,0.54c0.83,0.36,1.53,0.88,2.1,1.56l-1.77,1.63
		c-0.8-0.93-1.8-1.39-2.99-1.39c-0.74,0-1.39,0.16-1.97,0.48c-0.58,0.32-1.03,0.77-1.35,1.35c-0.32,0.58-0.48,1.24-0.48,1.97
		c0,0.74,0.16,1.39,0.48,1.97c0.32,0.58,0.77,1.03,1.35,1.35c0.58,0.32,1.23,0.48,1.97,0.48c1.19,0,2.19-0.47,2.99-1.41l1.77,1.63
		c-0.57,0.69-1.27,1.22-2.11,1.58c-0.84,0.36-1.77,0.54-2.81,0.54C167.66,223.78,166.56,223.52,165.58,222.99z"/>
	<path class="st2" d="M191.31,211.67v11.9h-2.75v-4.88h-5.41v4.88h-2.75v-11.9h2.75v4.69h5.41v-4.69H191.31z"/>
	<path class="st2" d="M201.31,222.98c-0.99-0.53-1.77-1.27-2.33-2.2s-0.84-1.99-0.84-3.15c0-1.17,0.28-2.22,0.84-3.15
		s1.34-1.67,2.33-2.2c0.99-0.53,2.1-0.8,3.34-0.8s2.35,0.27,3.33,0.8c0.99,0.53,1.76,1.27,2.33,2.2c0.57,0.94,0.85,1.99,0.85,3.15
		c0,1.17-0.28,2.22-0.85,3.15c-0.57,0.94-1.34,1.67-2.33,2.2c-0.99,0.53-2.1,0.8-3.33,0.8S202.31,223.51,201.31,222.98z
		 M206.56,220.95c0.57-0.32,1.01-0.77,1.33-1.35c0.32-0.58,0.48-1.24,0.48-1.97c0-0.74-0.16-1.39-0.48-1.97
		c-0.32-0.58-0.77-1.03-1.33-1.35c-0.57-0.32-1.2-0.48-1.9-0.48s-1.34,0.16-1.9,0.48c-0.57,0.32-1.01,0.77-1.33,1.35
		c-0.32,0.58-0.48,1.24-0.48,1.97c0,0.74,0.16,1.39,0.48,1.97c0.32,0.58,0.77,1.03,1.33,1.35c0.57,0.32,1.2,0.48,1.9,0.48
		S205.99,221.27,206.56,220.95z"/>
	<path class="st2" d="M218,211.67h2.75v9.66h5.97v2.24H218V211.67z"/>
	<path class="st2" d="M235.25,222.98c-0.99-0.53-1.77-1.27-2.33-2.2c-0.56-0.94-0.84-1.99-0.84-3.15c0-1.17,0.28-2.22,0.84-3.15
		c0.56-0.94,1.34-1.67,2.33-2.2c0.99-0.53,2.1-0.8,3.34-0.8s2.35,0.27,3.33,0.8c0.99,0.53,1.76,1.27,2.33,2.2s0.85,1.99,0.85,3.15
		c0,1.17-0.28,2.22-0.85,3.15s-1.34,1.67-2.33,2.2c-0.99,0.53-2.1,0.8-3.33,0.8S236.24,223.51,235.25,222.98z M240.49,220.95
		c0.57-0.32,1.01-0.77,1.33-1.35c0.32-0.58,0.49-1.24,0.49-1.97c0-0.74-0.16-1.39-0.49-1.97c-0.32-0.58-0.77-1.03-1.33-1.35
		c-0.57-0.32-1.2-0.48-1.9-0.48s-1.34,0.16-1.9,0.48c-0.57,0.32-1.01,0.77-1.33,1.35c-0.32,0.58-0.48,1.24-0.48,1.97
		c0,0.74,0.16,1.39,0.48,1.97s0.77,1.03,1.33,1.35c0.57,0.32,1.2,0.48,1.9,0.48S239.92,221.27,240.49,220.95z"/>
	<path class="st2" d="M259.97,217.44h2.52v4.83c-0.65,0.49-1.39,0.86-2.24,1.12c-0.85,0.26-1.71,0.39-2.57,0.39
		c-1.24,0-2.35-0.26-3.33-0.79c-0.99-0.53-1.76-1.26-2.32-2.19c-0.56-0.94-0.84-1.99-0.84-3.17c0-1.18,0.28-2.24,0.84-3.17
		c0.56-0.94,1.34-1.67,2.34-2.19s2.12-0.79,3.37-0.79c1.04,0,1.99,0.18,2.84,0.53c0.85,0.35,1.56,0.86,2.14,1.53l-1.77,1.63
		c-0.85-0.9-1.88-1.34-3.08-1.34c-0.76,0-1.43,0.16-2.02,0.48c-0.59,0.32-1.05,0.77-1.38,1.34c-0.33,0.58-0.49,1.24-0.49,1.99
		c0,0.74,0.16,1.39,0.49,1.97c0.33,0.58,0.78,1.03,1.37,1.35c0.58,0.32,1.25,0.48,2,0.48c0.79,0,1.51-0.17,2.14-0.51V217.44z"/>
</g>
</svg>
